<?xml version="1.0" standalone="no"?>
<!DOCTYPE svg PUBLIC "-//W3C//DTD SVG 1.1//EN" "http://www.w3.org/Graphics/SVG/1.1/DTD/svg11.dtd" >
<svg xmlns="http://www.w3.org/2000/svg" xmlns:xlink="http://www.w3.org/1999/xlink" version="1.1">
<metadata></metadata>
<defs>
<font id="abiconsregular" horiz-adv-x="1000" >
<font-face units-per-em="1000" ascent="750" descent="-250" />
<missing-glyph horiz-adv-x="250" />
<glyph horiz-adv-x="0" />
<glyph unicode="&#xd;" horiz-adv-x="250" />
<glyph unicode=" "  horiz-adv-x="250" />
<glyph unicode="&#x09;" horiz-adv-x="250" />
<glyph unicode="&#xa0;" horiz-adv-x="250" />
<glyph unicode="+" d="M120 438q0 78 30 147t81.5 120.5t120.5 81.5t148 30t148 -30t120.5 -81.5t81.5 -120.5t30 -147q0 -79 -30 -148t-81.5 -120.5t-120.5 -81.5t-148 -30t-148 30t-120.5 81.5t-81.5 120.5t-30 148zM840 438q0 71 -26.5 132.5t-73 107.5t-108 72.5t-132.5 26.5 q-70 0 -132 -26.5t-108.5 -72.5t-73 -107.5t-26.5 -132.5t26.5 -133t73 -108t108.5 -72.5t132 -26.5q71 0 132.5 26.5t108 72.5t73 108t26.5 133zM520 638v-181h180q8 0 14 -5.5t6 -13.5t-6 -14t-14 -6h-180v-181q0 -8 -6 -13.5t-14 -5.5t-13.5 5.5t-5.5 13.5v181h-181 q-8 0 -14 6t-6 14t6 13.5t14 5.5h181v181q0 8 5.5 13.5t13.5 5.5t14 -5.5t6 -13.5z" />
<glyph unicode="-" d="M500 817q79 0 148 -30t120.5 -81.5t81.5 -120.5t30 -147q0 -79 -30 -148t-81.5 -120.5t-120.5 -81.5t-148 -30t-148 30t-120.5 81.5t-81.5 120.5t-30 148q0 78 30 147t81.5 120.5t120.5 81.5t148 30zM500 98q71 0 132.5 26.5t108 72.5t73 108t26.5 133t-26.5 132.5 t-73 107.5t-108 72.5t-132.5 26.5q-70 0 -132 -26.5t-108.5 -72.5t-73 -107.5t-26.5 -132.5t26.5 -133t73 -108t108.5 -72.5t132 -26.5zM300 457h400q8 0 14 -5.5t6 -13.5t-6 -14t-14 -6h-400q-8 0 -14 6t-6 14t6 13.5t14 5.5z" />
<glyph unicode="/" d="M120 438q0 78 30 147t81.5 120.5t120.5 81.5t148 30t148 -30t120.5 -81.5t81.5 -120.5t30 -147q0 -79 -30 -148t-81.5 -120.5t-120.5 -81.5t-148 -30t-148 30t-120.5 81.5t-81.5 120.5t-30 148zM500 98q71 0 132.5 26.5t108 72.5t73 108t26.5 133t-26.5 132.5t-73 107.5 t-108 72.5t-132.5 26.5q-70 0 -132 -26.5t-108.5 -72.5t-73 -107.5t-26.5 -132.5t26.5 -133t73 -108t108.5 -72.5t132 -26.5zM701 566q6 6 14 6t14 -6q7 -5 7 -13t-7 -15l-269 -269q-6 -6 -14 -6t-14 6l-121 121q-13 13 0 28q6 6 14 6t14 -6l107 -107z" />
<glyph unicode="@" d="M600 148q0 29 11 56l-243 142q-20 -26 -51 -42.5t-67 -16.5q-31 0 -58.5 12t-48 32t-32 48t-11.5 59t11.5 58.5t32 47.5t48 32t58.5 12q36 0 66.5 -16t51.5 -43l243 142q-11 27 -11 57q0 31 11.5 58.5t32 47.5t48 32t58.5 12q32 0 59 -12t47.5 -32t32 -47.5t11.5 -58.5 t-11.5 -59t-32 -48t-47.5 -32t-59 -12q-36 0 -66 16.5t-52 42.5l-243 -142q6 -13 8.5 -27.5t2.5 -28.5q0 -15 -2.5 -29.5t-8.5 -27.5l243 -142q20 26 51 42.5t67 16.5q32 0 59 -12t47.5 -32t32 -47.5t11.5 -58.5q0 -32 -11.5 -59.5t-32 -48t-47.5 -32t-59 -11.5 q-31 0 -58.5 12t-48 32t-32 48t-11.5 59zM750 258q-23 0 -43 -8.5t-35 -23.5t-23.5 -35t-8.5 -43t8.5 -43.5t23.5 -35.5t35 -23.5t43 -8.5t43 8.5t35 23.5t23.5 35.5t8.5 43.5t-8.5 43t-23.5 35t-35 23.5t-43 8.5zM640 728q0 -23 8.5 -43.5t23.5 -35.5t35 -23.5t43 -8.5 t43 8.5t35 23.5t23.5 35.5t8.5 43.5t-8.5 43t-23.5 35t-35 23.5t-43 8.5t-43 -8.5t-35 -23.5t-23.5 -35t-8.5 -43zM140 438q0 -23 8.5 -43.5t23.5 -35.5t35 -23.5t43 -8.5t43 8.5t35 23.5t23.5 35.5t8.5 43.5t-8.5 43t-23.5 35t-35 23.5t-43 8.5t-43 -8.5t-35 -23.5 t-23.5 -35t-8.5 -43z" />
<glyph unicode="E" d="M840 798q9 0 14 -6t5 -15v-274q0 -10 -6 -15l-405 -404q-6 -7 -14 -7t-14 7l-273 274q-8 6 -8 14.5t8 14.5l405 404q6 7 14 7h274zM820 758h-246l-385 -386l246 -246l385 386v246zM633 685q25 22 58 22q32 0 56 -22q23 -26 23 -57q0 -32 -23 -58q-24 -22 -56 -22 q-33 0 -58 22q-23 26 -23 58q0 16 6 30.5t17 26.5zM650 628q0 -20 11 -28q11 -12 29 -12q8 0 15.5 3t12.5 9q6 5 9.5 12.5t3.5 15.5q0 16 -13 27q-11 13 -27 13t-29 -13q-6 -5 -9 -12t-3 -15z" />
<glyph unicode="L" d="M660 98q0 -9 -6 -15t-14 -6h-480q-9 0 -14.5 6t-5.5 15v479q0 9 5.5 15t14.5 6h180v179q0 9 6 15t14 6h480q9 0 14.5 -6t5.5 -15v-479q0 -9 -5.5 -15t-14.5 -6h-180v-179zM820 317v441h-440v-441h440zM620 277h-260q-8 0 -14 6t-6 15v260h-160v-441h440v160z" />
<glyph unicode="N" d="M590 298q0 31 12 58t32 47.5t47.5 32t58.5 11.5q32 0 61 -12.5t49 -35.5v245l-440 -92v-356q0 -31 -11.5 -58.5t-32 -47.5t-47.5 -31.5t-59 -11.5q-31 0 -58.5 11.5t-48 31.5t-32 47.5t-11.5 58.5q0 32 11.5 59.5t32 47.5t48 32t58.5 12q32 0 61 -12.5t49 -35.5v407 q0 16 16 21l480 99q2 1 4 1q6 0 13 -5q3 -2 5 -6t2 -8v-510q0 -31 -11.5 -58.5t-32 -48t-47.5 -32t-59 -11.5q-31 0 -58.5 11.5t-48 32t-32 48t-11.5 58.5zM150 197q0 -23 8.5 -43t23.5 -34.5t35 -23t43 -8.5t43 8.5t35 23t23.5 34.5t8.5 43t-8.5 43.5t-23.5 35.5t-35 23.5 t-43 8.5t-43 -8.5t-35 -23.5t-23.5 -35.5t-8.5 -43.5zM740 407q-23 0 -43 -8.5t-35 -23.5t-23.5 -34.5t-8.5 -42.5t8.5 -43t23.5 -35t35 -23.5t43 -8.5t43 8.5t35 23.5t23.5 35t8.5 43t-8.5 42.5t-23.5 34.5t-35 23.5t-43 8.5zM850 782l-440 -91v-99l440 92v98z" />
<glyph unicode="O" d="M391 0q-84 2 -154.5 32t-122.5 82t-82 122.5t-32 154.5q2 83 32 154t82 122.5t122.5 81.5t154.5 32q83 -2 154 -32t122.5 -81.5t81.5 -122.5t32 -154q-2 -84 -32 -154.5t-81.5 -122.5t-122.5 -82t-154 -32zM49 391q2 -73 28 -135t71.5 -107.5t107.5 -71.5t135 -28 q73 2 135 28t107 71.5t71 107.5t28 135q-2 73 -28 135t-71 107t-107 71t-135 28q-73 -2 -135 -28t-107.5 -71t-71.5 -107t-28 -135zM559 258q12 -14 3.5 -28t-22.5 -14q-9 0 -16 7l-151 150q-7 9 -7 18v273q0 12 7.5 18t17.5 6q9 0 16.5 -6t7.5 -18v-264z" />
<glyph unicode="V" d="M404 154q-4 -4 -12 -4q-5 0 -9 1.5t-6 2.5l-199 192q-7 7 -7.5 14.5t2.5 13.5t9 10t13 4q9 0 16 -7l155 -149v525q0 11 7 17.5t18 6.5t17.5 -6.5t6.5 -17.5v-525l154 149q7 7 17 7q7 0 13.5 -4t9.5 -10.5t2.5 -13.5t-7.5 -13zM708 174q0 12 7.5 18t16.5 6q10 0 17.5 -6 t7.5 -18v-150q0 -11 -7 -17.5t-18 -6.5h-683q-11 0 -18 6.5t-7 17.5v150q0 11 7 17.5t18 6.5t17.5 -6.5t6.5 -17.5v-125h635v125z" />
<glyph unicode="e" d="M880 707q9 0 14.5 -5.5t5.5 -13.5v-500q0 -8 -5.5 -14t-14.5 -6h-760q-9 0 -14.5 6t-5.5 14v500q0 8 5.5 13.5t14.5 5.5h760zM168 668l332 -332l332 332h-664zM514 294q-6 -7 -14 -7t-14 7l-116 115l-201 -202h662l-201 202zM140 640v-405l202 203zM860 235v405 l-202 -202z" />
<glyph unicode="&#x532;" d="M100 548q0 16 6.5 30.5t17.5 25.5t25.5 17.5t30.5 6.5h70v140q0 8 6 13.5t14 5.5h461q8 0 13.5 -5.5t5.5 -13.5v-140h70q16 0 30.5 -6.5t25.5 -17.5t17.5 -25.5t6.5 -30.5v-240q0 -17 -6.5 -31.5t-17.5 -25.5t-25.5 -17t-30.5 -6h-70v-121q0 -8 -5.5 -13.5t-13.5 -5.5 h-461q-8 0 -14 5.5t-6 13.5v121h-70q-16 0 -30.5 6t-25.5 17t-17.5 25.5t-6.5 31.5v240zM180 588q-17 0 -28.5 -11.5t-11.5 -28.5v-240q0 -17 11.5 -28.5t28.5 -11.5h70v120q0 8 6 13.5t14 5.5h461q8 0 13.5 -5.5t5.5 -13.5v-120h70q17 0 28.5 11.5t11.5 28.5v240 q0 17 -11.5 28.5t-28.5 11.5h-640zM710 367h-420v-239h420v239zM290 628h420v119h-420v-119zM370 178q-9 0 -14.5 5.5t-5.5 13.5q0 9 5.5 15t14.5 6h260q9 0 14.5 -6t5.5 -15q0 -8 -5.5 -13.5t-14.5 -5.5h-260zM370 277q-9 0 -14.5 6t-5.5 15q0 8 5.5 13.5t14.5 5.5h260 q9 0 14.5 -5.5t5.5 -13.5q0 -9 -5.5 -15t-14.5 -6h-260z" />
<glyph unicode="&#x25fc;" horiz-adv-x="500" d="M0 0v0v0v0v0z" />
<glyph unicode="&#xe648;" d="M434 254v-232h-235v398l301 301l301 -301v-398h-235v232h-132zM400 287h200v-232h166v351l-266 268l-266 -268v-351h166v232zM334 688l166 166l418 -416l-23 -24l-395 393l-394 -393l-24 24l117 117v199h135v-66zM234 588l67 66v67h-67v-133z" />
<glyph unicode="&#xe653;" d="M334 779q28 0 47 -19q8 -10 13.5 -21.5t5.5 -25.5v-18h434q27 0 46.5 -19.5t19.5 -46.5v-467q0 -14 -5.5 -25.5t-13.5 -21.5q-19 -19 -47 -19h-668q-28 0 -47 19q-8 10 -13.5 21.5t-5.5 25.5v551q0 14 5.5 25.5t13.5 21.5q19 19 47 19h168zM834 129q14 0 23.5 9.5 t9.5 23.5v401h-734v-401q0 -14 9.5 -23.5t23.5 -9.5h668zM367 713q0 14 -9.5 23.5t-23.5 9.5h-168q-14 0 -23.5 -9.5t-9.5 -23.5v-117h734v33q0 14 -9.5 23.5t-23.5 9.5h-467v51z" />
<glyph unicode="&#xe661;" d="M770 438l-362 361l41 41l403 -402l-403 -403l-41 41zM164 840l402 -402l-402 -403l-41 41l361 362l-361 361z" />
<glyph unicode="&#xe662;" d="M789 840l43 -41l-361 -361l361 -362l-43 -41l-402 403zM506 840l41 -41l-363 -361l363 -362l-43 -41l-402 403z" />
<glyph unicode="&#xe67b;" d="M51 47l449 781l449 -781h-898zM107 80h786l-393 682zM518 512v-233h-36v233h36zM500 180q-10 0 -17.5 7t-7.5 18q0 10 7.5 17t17.5 7t17.5 -7t7.5 -17q0 -11 -7.5 -18t-17.5 -7z" />
<glyph unicode="&#xe72a;" d="M314 31q-87 5 -167 25.5t-147 68.5q5 -2 18 -2h14h9t8 -2q74 4 137.5 23.5t118.5 66.5q-69 0 -119.5 38t-72.5 103q5 0 13 -2t16 -2q6 0 8 2q3 -1 9 -1q11 0 20.5 3t18.5 3q-33 11 -62 29.5t-50 44t-33 58t-12 70.5v2q20 -8 43 -17t49 -9q-42 25 -67 72t-25 98 q0 29 7.5 54.5t21.5 51.5q75 -99 184.5 -152.5t237.5 -64.5q0 14 -2 24.5t-2 24.5q0 39 15 76t41.5 65t62 45t76.5 17q26 0 47 -3.5t39.5 -11t36 -19.5t36.5 -29q18 0 34.5 5t33 12.5t32 15.5t31.5 14q-12 -32 -35 -63.5t-55 -47.5q28 0 58.5 9.5t57.5 20.5q0 1 0.5 1.5 t0.5 1.5v-2q-20 -34 -47.5 -58.5t-55.5 -48.5q2 -4 1.5 -12t-0.5 -12q0 -69 -17 -139t-50 -135t-82.5 -121t-114.5 -98t-145 -67t-175 -26zM314 92q91 0 165.5 23.5t132.5 63.5t101 92.5t71 110.5t42 118.5t14 114.5v2v10t-2 10q0 12 2 18t6 17q-8 0 -11.5 10.5t-8.5 14.5 q-2 5 -3 13.5t1 14.5q-6 0 -13.5 6.5t-11.5 6.5q-20 27 -49 36t-59 13q-30 -2 -56 -13.5t-45.5 -30.5t-31 -45.5t-11.5 -58.5q0 -4 -0.5 -16t4.5 -17q0 -16 -3 -27.5t-11 -25.5q-8 -4 -17 -11.5t-20 -7.5q-5 0 -8 1q0 -2 -1 -1t-1 -1q-108 8 -209.5 46.5t-178.5 111.5 q4 -35 20 -61t44 -50q9 -2 14.5 -9.5t8 -17t3 -19.5t-1.5 -18q-8 -22 -22.5 -30.5t-34.5 -12.5q0 2 -1 1t-1 1q0 -1 -2 -1q-4 0 -4 -1q15 -19 39 -39t53 -20q19 -8 33 -21t14 -37q0 -19 -11.5 -36t-33.5 -21v-2q18 -8 35.5 -18t39.5 -10q7 0 11 1q18 -4 34.5 -13t19.5 -30 q5 -6 5 -15.5t-3 -19t-8.5 -17.5t-12.5 -11q-23 -23 -52.5 -37.5t-58.5 -28.5q17 0 35 -4t35 -4q7 0 15 2z" />
<glyph unicode="&#xe73d;" d="M234 -63q-46 0 -88.5 19t-75 51t-51.5 74.5t-17 90.5l-2 531q2 48 20.5 90.5t50 74.5t74 51t91.5 19h530q49 0 91.5 -19t74 -51t50 -74.5t20.5 -90.5l-2 -531q2 -48 -17 -90.5t-51.5 -74.5t-75 -51t-88.5 -19h-534zM59 172q2 -36 16 -68t37 -56t55 -38t69 -14h530 q38 0 69.5 14t54.5 38t37 56t16 68h-2l2 353h-191q18 -26 21.5 -55.5t7.5 -61.5q-2 -58 -23.5 -109t-58.5 -89t-88 -59.5t-111 -21.5q-57 0 -108 21.5t-89.5 59.5t-60 89t-19.5 109q-5 32 4.5 61.5t20.5 55.5h-187zM61 584h224q43 47 95 75.5t122 28.5q63 0 120 -28t93 -76 h226l2 119q-2 36 -16 68t-37 56t-54.5 38t-69.5 14h-530q-37 0 -69 -14t-55 -38t-37 -56t-16 -68zM281 408q-2 -46 16 -86t48.5 -70t71 -47t83.5 -17q47 0 86.5 17t69 47t47.5 70t20 86q-2 45 -20 85t-47.5 70.5t-69 48t-86.5 17.5q-43 0 -83.5 -17.5t-71 -48t-48.5 -70.5 t-16 -85zM707 777q-2 6 0.5 12t7.5 10.5t11.5 7t11.5 2.5h82q10 0 22 -9t8 -23l2 -76q-5 -12 -11 -21.5t-23 -9.5h-78q-18 0 -24 9t-11 22z" />
<glyph unicode="&#xe741;" d="M369 609v104q0 53 11.5 94.5t38 70.5t69 44.5t104.5 15.5h139v-172h-86q-25 0 -39 -5t-21 -14t-9 -22t-2 -30v-86h158l-17 -171h-139v-501h-205v501h-103v171h101z" />
<glyph unicode="&#xe74b;" d="M314 31q-45 0 -85.5 6t-78.5 17.5t-75.5 28t-76.5 38.5q3 1 10 1q8 0 15 -1t15 -1q7 0 11 1q73 0 134.5 20.5t119.5 65.5q-33 2 -64 12.5t-56.5 29.5t-43.5 45t-26 58q3 -5 16 -5h9q9 0 10 -1q17 3 30 3.5t27 4.5q-37 6 -67 24.5t-51.5 45.5t-33.5 60t-14 69q2 4 1 3.5 t1 2.5q9 -9 20 -13t23 -6l24 -4t23 -7q-18 16 -35 34.5t-30 40t-20 46.5t-5 53q-4 24 6 53t21 49q80 -91 186 -150t238 -63q-3 3 -4 9t-1 13t-0.5 13t-2.5 10q2 44 18.5 81t44 64.5t64.5 43.5t80 18q43 -4 83.5 -19t65.5 -48q36 8 68 20.5t65 30.5q-15 -38 -36.5 -65 t-55.5 -50q30 8 60 12.5t59 22.5q-22 -33 -47 -58t-56 -50q0 -6 1 -13.5t-1 -13.5q1 -67 -15.5 -136.5t-50 -134.5t-83.5 -122.5t-115.5 -99.5t-145.5 -66t-173 -23z" />
<glyph unicode="&#xe751;" d="M971 731v-588q0 -38 -14 -70t-38 -55t-56 -37t-68 -16l-590 2q-36 0 -68 13.5t-56 37t-38 55.5t-14 68v591q0 36 14 68t38 55.5t56 37t68 13.5l590 2q36 -2 68 -16t56 -37t38 -54.5t14 -69.5zM553 254q0 -28 10 -52t27.5 -41t41.5 -27.5t52 -12.5q27 2 50.5 12.5t41 27.5 t28 41t10.5 52q0 31 -11 55.5t-30.5 41t-45.5 25t-55 8.5q-23 0 -41.5 -11.5t-36.5 -22.5l-147 72v27l147 76q20 -20 41.5 -26.5t48.5 -10.5q27 2 50.5 12t41 27t28 40.5t10.5 53.5t-11 53.5t-30 40.5t-44.5 26t-53.5 9q-26 0 -48.5 -11t-39 -29.5t-25.5 -41.5t-9 -47v-15 l-147 -73q-17 11 -36.5 22.5t-42.5 11.5q-7 0 -11 -1q-2 1 -7 1q-25 0 -47.5 -11t-39.5 -29.5t-26.5 -41.5t-9.5 -47q0 -28 10.5 -52t28 -41t41 -27.5t50.5 -12.5q27 4 49 11t41 26l147 -76v-12z" />
<glyph unicode="&#xe9ce;" d="M0 438q35 69 87 126.5t116.5 99t139.5 64t157 22.5t157 -22.5t139.5 -64t116.5 -99t87 -126.5q-35 -69 -87 -127t-116.5 -99t-139.5 -64t-157 -23t-157 23t-139.5 64t-116.5 99t-87 127zM735 592q15 -40 15 -86q0 -52 -19.5 -97.5t-53.5 -79.5t-79.5 -53.5t-97.5 -19.5 t-97.5 19.5t-79.5 53.5t-53.5 79.5t-19.5 97.5q0 23 4 44.5t11 41.5l-6 -4t-5 -4q-45 -27 -81.5 -64.5t-65.5 -81.5q33 -51 75.5 -91.5t93 -69t107 -43.5t117.5 -15q60 0 117 15t107.5 43.5t93 69t75.5 91.5q-29 44 -65.5 81.5t-81.5 64.5q-2 2 -5 4zM313 531q0 -39 27 -66 t66 -27t66.5 27t27.5 66q0 20 -7.5 37t-20 29.5t-29.5 20t-37 7.5q-39 0 -66 -27.5t-27 -66.5z" />
<glyph unicode="&#xea0e;" d="M0 438q-2 66 15.5 128.5t50 118t78 102t100.5 80t117 52.5t128 19h11q104 0 195 -39.5t158.5 -107.5t107 -159t39.5 -194q3 -99 -36.5 -189.5t-107 -160t-157 -110.5t-188.5 -41h-22q-99 0 -188.5 41t-157 110.5t-107 160t-36.5 189.5zM806 221q32 46 50.5 101t18.5 116 q0 77 -29.5 145.5t-80.5 119.5t-119 80.5t-146 29.5q-61 0 -116 -19t-101 -51zM194 654q-32 -46 -50.5 -101t-18.5 -115q0 -78 29.5 -146t80.5 -119t119 -80.5t146 -29.5q61 0 116 18.5t101 50.5z" />
<glyph unicode="&#xea10;" d="M156 563l219 -219l469 469l156 -157l-625 -625l-375 375z" />
<glyph unicode="&#xea15;" d="M0 438q0 104 39 195t107 159t159 107t195 39t195 -39t159 -107t107 -159t39 -195t-39 -195t-107 -159t-159 -107.5t-195 -39.5t-195 39.5t-159 107.5t-107 159t-39 195zM500 844q-84 0 -158 -32t-129 -87t-87 -129t-32 -158t32 -158.5t87 -129.5t129 -87t158 -32t158 32 t129 87t87 129.5t32 158.5t-32 158t-87 129t-129 87t-158 32zM375 219v437l375 -218z" />
<glyph unicode="&#xea1c;" d="M188 63v750l625 -375z" />
<glyph unicode="&#xea52;" d="M125 -63q-26 0 -49 10t-40 27t-26.5 40t-9.5 49v750q0 26 9.5 48.5t26.5 39.5t40 27t49 10h750q26 0 49 -10t40 -27t26.5 -39.5t9.5 -48.5v-750q0 -26 -9.5 -49t-26.5 -40t-40 -27t-49 -10h-750zM438 161l387 389l-88 88l-299 -299l-144 143l-88 -88z" />
<glyph unicode="&#xea53;" d="M0 813q0 26 9.5 48.5t26.5 39.5t40 27t49 10h750q26 0 49 -10t40 -27t26.5 -39.5t9.5 -48.5v-750q0 -26 -9.5 -49t-26.5 -40t-40 -27t-49 -10h-750q-26 0 -49 10t-40 27t-26.5 40t-9.5 49v750zM125 813v-750h750v750h-750z" />
<glyph unicode="&#xea90;" d="M375 625v94q0 45 17 85t47 70t70 47t85 17h156v-188h-156q-13 0 -22 -9t-9 -22v-94h187l-31 -187h-156v-501h-188v501h-125v187h125z" />
<glyph unicode="&#xea91;" d="M625 563q0 25 18.5 43.5t44.5 18.5h125v125h-125q-39 0 -73 -14.5t-59.5 -40t-40.5 -59.5t-15 -73v-63h-125v-125h125v-438h-406q-19 0 -36.5 7.5t-30 20t-20 30t-7.5 36.5v813q0 20 7.5 37t20 29.5t30 20t36.5 7.5h812q39 0 66.5 -27.5t27.5 -66.5v-813 q0 -19 -7.5 -36.5t-20 -30t-29.5 -20t-37 -7.5h-281v438h156l32 125h-188v63z" />
<glyph unicode="&#xea92;" d="M906 938q39 0 66.5 -27.5t27.5 -66.5v-813q0 -19 -7.5 -36.5t-20 -30t-29.5 -20t-37 -7.5h-812q-19 0 -36.5 7.5t-30 20t-20 30t-7.5 36.5v813q0 20 7.5 37t20 29.5t30 20t36.5 7.5h812zM688 438q0 39 -14.5 73t-40 59.5t-60 40t-73.5 14.5t-73 -14.5t-59.5 -40 t-40 -59.5t-14.5 -73t14.5 -73.5t40 -60t59.5 -40t73 -14.5t73.5 14.5t60 40t40 60t14.5 73.5zM807 500q3 -14 4.5 -30.5t1.5 -31.5q0 -65 -24.5 -122t-67 -99.5t-99.5 -67t-122 -24.5t-122 24.5t-99 67t-66.5 99.5t-24.5 122q0 17 1.5 32.5t3.5 29.5h-68v-406q0 -13 9 -22 t22 -9h688q13 0 22 9t9 22v406h-68zM688 656q0 -13 9 -22t22 -9h125q13 0 22 9t9 22v125q0 13 -9 22.5t-22 9.5h-125q-13 0 -22 -9.5t-9 -22.5v-125z" />
<glyph unicode="&#xea93;" d="M73 194q-33 57 -49.5 119.5t-16.5 128.5q0 102 39 192.5t106 158t157 106.5t193 39t193 -39t157.5 -106.5t106.5 -158t39 -193.5q0 -102 -39 -192.5t-106.5 -157.5t-158 -106t-192.5 -39q-63 0 -122.5 15t-113.5 46l-263 -70zM90 442q0 -59 16 -114.5t47 -104.5l10 -16 l-42 -151l156 40l15 -9q98 -58 210 -58q85 0 160 32.5t131 88.5t88.5 131t32.5 160q0 86 -32 161t-88 131t-131 88.5t-161 32.5q-85 0 -160 -32.5t-131 -88.5t-88.5 -131t-32.5 -160zM250 552q0 23 5 40.5t12.5 30t15 20.5t11.5 12q9 10 18.5 13t21.5 3h8.5t8.5 -1 q11 0 16.5 -4.5t10.5 -16.5q4 -9 9.5 -22.5t12.5 -30.5t11 -27t5 -12q7 -10 1 -21.5t-12 -20.5q-5 -6 -9.5 -12t-8.5 -10q-5 -5 -8.5 -10.5t2.5 -14.5t23.5 -35.5t45.5 -50.5q35 -31 62.5 -44t37.5 -18q10 -4 12 -4q7 0 14 7q3 3 8.5 9.5t11 14t11 14.5t8.5 11q6 10 15 10 q7 0 14 -3q21 -10 42.5 -20t41.5 -21q19 -7 24 -15q2 -4 1 -20.5t-9 -37.5q-5 -15 -18 -26.5t-29.5 -19.5t-33.5 -12t-31 -4q-20 0 -49 8q-91 26 -160 80.5t-122 132.5q-21 29 -36 60.5t-15 67.5z" />
<glyph unicode="&#xea96;" d="M842 748q68 13 131 50q-12 -36 -35.5 -65.5t-55.5 -47.5q63 6 118 32q-40 -62 -102 -107q0 -7 0.5 -13t0.5 -13q0 -68 -17 -137.5t-50.5 -134.5t-83 -122t-114.5 -99t-145 -66.5t-174 -24.5q-88 0 -167 24.5t-148 67.5l24 -2t25 -1q72 0 136.5 23t118.5 65 q-34 1 -64.5 12t-55.5 30t-43.5 44.5t-28.5 55.5q10 -1 19 -2t19 -1q31 0 55 7q-36 7 -66.5 25.5t-52 45.5t-34 60.5t-12.5 69.5v3q20 -11 44 -18t49 -8q-42 29 -66.5 73.5t-24.5 97.5q0 29 7 55t20 48q38 -46 85 -84.5t101 -66.5t113.5 -44t123.5 -19q-2 11 -3.5 23 t-1.5 23q0 43 16 80.5t44 65.5t65.5 44t79.5 16q45 0 83.5 -18t66.5 -47z" />
<glyph unicode="&#xea9b;" d="M0 938q139 0 267 -36t239 -101.5t202.5 -157t156 -203t100 -239t35.5 -264.5h-192q0 112 -29 215t-81.5 193t-126.5 164t-164 126.5t-193 81.5t-214 29v192zM0 598q91 0 175.5 -23.5t158 -66.5t133.5 -103.5t103 -134t66.5 -158t23.5 -175.5h-192q3 93 -34 178 t-100.5 149.5t-147.5 103t-176 38.5h-10v192zM133 -62q-28 0 -52 10.5t-42 28.5t-28.5 42.5t-10.5 51.5q0 28 10.5 52t28.5 42t42 28.5t52 10.5t52.5 -10.5t42.5 -28.5t28.5 -42t10.5 -52t-10.5 -52t-28.5 -42t-42.5 -28.5t-52.5 -10.5z" />
<glyph unicode="&#xea9c;" d="M906 938q39 0 66.5 -27.5t27.5 -66.5v-813q0 -19 -7.5 -36.5t-20 -30t-29.5 -20t-37 -7.5h-812q-19 0 -36.5 7.5t-30 20t-20 30t-7.5 36.5v813q0 20 7.5 37t20 29.5t30 20t36.5 7.5h812zM825 125q0 132 -50 248t-136.5 203t-202.5 137t-248 50v-122q106 0 200 -40.5 t164 -111t110.5 -164t40.5 -200.5h122zM188 424q62 0 116 -23.5t94.5 -64t63.5 -95t23 -116.5h123q0 87 -33 163.5t-90 134t-133.5 90.5t-163.5 33v-122zM273 295q-35 0 -60 -25t-25 -60t25 -59.5t60 -24.5q17 0 32.5 6.5t27 18t18 26.5t6.5 33t-6.5 33.5t-18 27t-27 18 t-32.5 6.5z" />
<glyph unicode="&#xead8;" d="M574 938q81 0 142 -18.5t96 -57.5q31 -36 40.5 -77.5t1.5 -100.5q0 -5 -1 -9.5t-2 -9.5q-16 -79 -49 -133t-80 -87.5t-105.5 -48t-126.5 -14.5h-91q-17 0 -29 -10.5t-14 -26.5l-47 -296h-193q-11 0 -19.5 9.5t-6.5 20.5l130 821q3 16 15 27t29 11h310zM490 319 q171 0 277 81t141 236q24 -33 28.5 -77t-5.5 -96q-14 -69 -43 -116.5t-70 -77t-92.5 -42t-110.5 -12.5h-24q-14 0 -25 -9t-13 -23l-32 -205l-2 -7q-2 -15 -13 -24.5t-25 -9.5h-163q-11 0 -17.5 8.5t-4.5 19.5l3 21h63l53 333h75z" />
<glyph unicode="&#xf106;" horiz-adv-x="531" d="M156 516v125q0 56 17 99.5t48 73.5t73.5 45.5t94.5 15.5q91 0 142 -6v-160h-97q-51 0 -70.5 -22t-19.5 -64v-107h176l-22 -188h-154v-453h-188v453h-156v188h156z" />
<glyph unicode="&#xf11a;" d="M94 375q0 85 32 159t87 129t129 86.5t158 31.5q85 0 159 -31.5t129 -86.5t86.5 -129t31.5 -159t-31.5 -159t-86.5 -129t-129 -86.5t-159 -31.5q-84 0 -158 31.5t-129 86.5t-87 129t-32 159zM156 375q0 -72 27 -134.5t73.5 -109t109 -73.5t134.5 -27t134.5 27t109 73.5 t73.5 109t27 134.5t-27 134.5t-73.5 109t-109 73.5t-134.5 27t-134.5 -27t-109 -73.5t-73.5 -109t-27 -134.5zM719 344h-321l125 -125l-46 -43l-200 199l200 199l46 -43l-125 -125h321v-62z" />
<glyph unicode="&#xf11b;" d="M94 375q0 85 32 159t87 129t129 86.5t158 31.5q85 0 159 -31.5t129 -86.5t86.5 -129t31.5 -159t-31.5 -159t-86.5 -129t-129 -86.5t-159 -31.5q-84 0 -158 31.5t-129 86.5t-87 129t-32 159zM500 31q72 0 134.5 27t109 73.5t73.5 109t27 134.5t-27 134.5t-73.5 109 t-109 73.5t-134.5 27t-134.5 -27t-109 -73.5t-73.5 -109t-27 -134.5t27 -134.5t73.5 -109t109 -73.5t134.5 -27zM723 375l-200 -199l-46 43l125 125h-321v62h321l-125 125l46 43z" />
<glyph unicode="&#xf14e;" d="M555 31q-10 -16 -24.5 -23.5t-30.5 -7.5t-30.5 7.5t-24.5 23.5h-351v637l19 10q99 41 200 41q47 0 93.5 -9.5t93.5 -27.5q48 18 94 27.5t94 9.5q22 0 46.5 -2.5t47.5 -7t43.5 -10t33.5 -11.5l28 -10l19 -10v-637h-351zM313 148q74 0 156 -27v504q-87 31 -156 31 q-74 0 -157 -31v-504q83 27 157 27zM531 121q83 27 157 27t156 -27v504q-83 31 -156 31q-70 0 -157 -31v-504z" />
<glyph unicode="&#xf17d;" d="M885 504q21 -57 21 -129q0 -85 -31.5 -159t-86.5 -129t-129 -86.5t-159 -31.5q-84 0 -158 31.5t-129 86.5t-87 129t-32 159t32 159t87 129t129 86.5t158 31.5q166 0 281 -115l-43 -45q-98 98 -238 98q-72 0 -134.5 -27t-109 -73.5t-73.5 -109t-27 -134.5t27 -134.5 t73.5 -109t109 -73.5t134.5 -27t134.5 27t109 73.5t73.5 109t27 134.5q0 41 -10 78zM898 602l-375 -375l-23 -20l-23 20l-157 156l47 47l133 -135l352 353z" />
<glyph unicode="&#xf17e;" d="M875 0h-750v750h744l-62 -62h-619v-625h625v369l62 62v-494zM898 602l-375 -375l-23 -20l-23 20l-157 156l47 47l133 -135l352 353z" />
<glyph unicode="&#xf185;" d="M752 660l21 -23l-261 -262l261 -262l-21 -23l-111 -113l-24 -20l-23 20l-375 375l-20 23l20 23l375 375l23 20l24 -20zM287 375l330 -330l69 68l-264 262l264 262l-69 68z" />
<glyph unicode="&#xf186;" d="M406 -23l-23 -20l-24 20l-111 113l-21 23l261 262l-261 262l21 23l111 113l24 20l23 -20l375 -375l20 -23l-20 -23zM383 45l330 330l-330 330l-69 -68l264 -262l-264 -262z" />
<glyph unicode="&#xf190;" d="M844 31h-531v532h531v-532zM781 500h-406v-406h406v406zM156 719h532v-125h-63v62h-406v-406h62v-62h-125v531z" />
<glyph unicode="&#xf191;" d="M227 695l273 -275l273 275l47 -47l-275 -273l275 -273l-47 -47l-273 275l-273 -275l-47 47l275 273l-275 273z" />
<glyph unicode="&#xf1a1;" d="M688 219h-301l-149 -117l-50 -43v160h-125v500h625v-500zM625 656h-500v-375h125v-90l106 82l7 8h262v375zM637 156l113 -90v90h125v375h-125v63h188v-500h-125v-160l-200 160h-289l78 62h235z" />
<glyph unicode="&#xf1c4;" d="M456 419q10 10 20.5 14t21.5 4q18 0 33.5 -10.5t24 -26t7 -34t-18.5 -35.5q-10 -10 -20.5 -14t-21.5 -4q-18 0 -33.5 10.5t-24 26t-6.5 34.5t18 35zM456 169q10 10 20.5 14t21.5 4q18 0 33.5 -10.5t24 -26t7 -34t-18.5 -35.5q-10 -10 -20.5 -14t-21.5 -4 q-18 0 -33.5 10.5t-24 26t-6.5 34.5t18 35zM456 669q10 10 20.5 14t21.5 4q18 0 33.5 -10.5t24 -26t7 -34t-18.5 -35.5q-10 -10 -20.5 -14t-21.5 -4q-18 0 -33.5 10.5t-24 26t-6.5 34.5t18 35z" />
<glyph unicode="&#xf1ce;" d="M500 750q78 0 146 -29.5t119 -80.5t80.5 -119t29.5 -146t-29.5 -146t-80.5 -119t-119 -80.5t-146 -29.5t-146 29.5t-119 80.5t-80.5 119t-29.5 146t29.5 146t80.5 119t119 80.5t146 29.5zM500 63q65 0 122 24.5t99.5 66.5t67 99t24.5 122t-24.5 122t-67 99.5t-99.5 67 t-122 24.5t-122 -24.5t-99 -67t-66.5 -99.5t-24.5 -122t24.5 -122t66.5 -99t99 -66.5t122 -24.5zM469 563h62v-250h-62v250zM469 188v62h62v-62h-62z" />
<glyph unicode="&#xf1cf;" d="M70 31l430 742l430 -742h-860zM180 94h640l-320 554zM531 438v-188h-62v188h62zM531 219v-63h-62v63h62z" />
<glyph unicode="&#xf226;" d="M438 699q0 34 26 58t63 24h14l10 -8l211 -210h176v-500h-528q-31 0 -57.5 20t-32.5 54l-52 238h-112q-39 0 -66 27.5t-27 66.5t27 66.5t66 27.5h336l-6 23q-26 21 -37 50.5t-11 62.5zM516 641l25 -20l4 -12l29 -109h-418q-31 0 -31 -31t31 -31h162l6 -24l55 -266 q6 -23 31 -23h309v395l-199 195q-20 -2 -20 -16q0 -36 16 -58zM875 125v375h-94v-375h94z" />
<glyph unicode="&#xf227;" d="M473 781q37 0 63.5 -24t26.5 -58q0 -33 -11.5 -62.5t-37.5 -50.5l-6 -23h336q39 0 66.5 -27.5t27.5 -66.5q0 -19 -7.5 -36.5t-20 -30t-29.5 -20t-37 -7.5h-112l-52 -238q-6 -34 -32 -54t-58 -20h-527v500h175l211 210l10 8h14zM459 621l10 8q6 2 15 12q16 22 16 58 q0 15 -19 16l-200 -195v-395h309q25 0 31 23l55 266l6 24h162q31 0 31 31t-31 31h-418l12 39l17 70zM125 125h94v375h-94v-375z" />
<glyph unicode="&#xf237;" d="M563 0v313h-125v-313h-282v361l-39 -41l-47 47l407 406l23 20l23 -20l407 -406l-47 -47l-39 41v-361h-281zM625 63h156v361l-281 281l-281 -281v-361h156v312h250v-312z" />
<glyph unicode="&#xf246;" d="M938 31h-875v688h875v-688zM875 223v433h-750v-402l219 219l203 -203l141 140zM631 94l-287 289l-219 -219v-70h506zM875 94v39l-187 187l-98 -95l129 -131h156zM748 594q18 0 33.5 -10.5t24 -26.5t7 -34.5t-18.5 -35.5q-10 -10 -20.5 -14t-21.5 -4q-18 0 -33.5 10.5 t-24 26t-6.5 34.5t18 35q19 19 42 19z" />
<glyph unicode="&#xf27d;" d="M219 500q0 59 22 110t60 89t89 60t110 22t110 -22t89 -60t60 -89t22 -110q0 -29 -12.5 -69.5t-33 -86t-46 -94t-52 -93t-51 -83.5t-43.5 -66l-43 -63l-25 37q-20 29 -46.5 69.5t-55 88t-56 98t-49.5 98.5t-35.5 90.5t-13.5 73.5zM500 59q17 25 39.5 60t46.5 75t48 83.5 t43 84.5t30.5 76.5t11.5 61.5q0 46 -17 86t-46.5 69.5t-69.5 46.5t-86 17t-86 -17t-69.5 -46.5t-46.5 -69.5t-17 -86q0 -25 11.5 -61t30.5 -77t43 -84.5t48 -84t47 -75.5t39 -59zM456 544q10 10 20.5 14t21.5 4q18 0 33.5 -10.5t24 -26t7 -34t-18.5 -35.5q-10 -10 -20.5 -14 t-21.5 -4q-18 0 -33.5 10.5t-24 26t-6.5 34.5t18 35z" />
<glyph unicode="&#xf28f;" d="M94 375q0 85 32 159t87 129t129 86.5t158 31.5q85 0 159 -31.5t129 -86.5t86.5 -129t31.5 -159t-31.5 -159t-86.5 -129t-129 -86.5t-159 -31.5q-84 0 -158 31.5t-129 86.5t-87 129t-32 159zM156 375q0 -72 27 -134.5t73.5 -109t109 -73.5t134.5 -27t134.5 27t109 73.5 t73.5 109t27 134.5t-27 134.5t-73.5 109t-109 73.5t-134.5 27t-134.5 -27t-109 -73.5t-73.5 -109t-27 -134.5zM688 406v-62h-375v62h375z" />
<glyph unicode="&#xf290;" d="M156 719h688v-688h-688v688zM219 656v-562h562v562h-562zM344 406h312v-62h-312v62z" />
<glyph unicode="&#xf2c3;" d="M94 375q0 85 32 159t87 129t129 86.5t158 31.5q85 0 159 -31.5t129 -86.5t86.5 -129t31.5 -159t-31.5 -159t-86.5 -129t-129 -86.5t-159 -31.5q-84 0 -158 31.5t-129 86.5t-87 129t-32 159zM156 375q0 -72 27 -134.5t73.5 -109t109 -73.5t134.5 -27t134.5 27t109 73.5 t73.5 109t27 134.5t-27 134.5t-73.5 109t-109 73.5t-134.5 27t-134.5 -27t-109 -73.5t-73.5 -109t-27 -134.5zM531 188h-62v156h-156v62h156v157h62v-157h157v-62h-157v-156z" />
<glyph unicode="&#xf2c4;" d="M844 31h-688v688h688v-688zM781 656h-562v-562h562v562zM531 406h125v-62h-125v-125h-62v125h-125v62h125v125h62v-125z" />
<glyph unicode="&#xf2cd;" d="M313 625v-62q-27 0 -49.5 -9.5t-39.5 -26.5t-26.5 -40t-9.5 -49h250v-313h-313v313q0 39 14.5 73t40 59.5t60 40t73.5 14.5zM750 563q-26 0 -49 -9.5t-40 -26.5t-26.5 -40t-9.5 -49h250v-313h-312v313q0 39 14.5 73t40 59.5t59.5 40t73 14.5v-62zM625 188h188v187h-188 v-187zM375 188v187h-187v-187h187z" />
<glyph unicode="&#xf2ce;" d="M125 313v312h313v-312q0 -39 -14.5 -73.5t-40 -60t-60 -40t-73.5 -14.5v63q26 0 49 9.5t40 26.5t26.5 39.5t9.5 49.5h-250zM688 125v63q26 0 49 9.5t40 26.5t26.5 39.5t9.5 49.5h-250v312h312v-312q0 -39 -14.5 -73.5t-40 -60t-59.5 -40t-73 -14.5zM625 563v-188h188v188 h-188zM188 563v-188h187v188h-187z" />
<glyph unicode="&#xf318;" d="M53 482l316 34l131 293l131 -293l316 -34l-236 -212l66 -313l-277 158l-277 -158l66 313z" />
<glyph unicode="&#xf33e;" d="M465 -31q-19 0 -35.5 6.5t-28.5 18t-19 26.5t-7 31q0 33 11.5 62.5t37.5 50.5l6 24h-180q-22 0 -41.5 9.5t-32 25.5t-18 36.5t-0.5 41.5l69 312q5 34 31.5 54.5t57.5 20.5h528v-500h-145l-220 -219h-14zM656 231v394h-340q-25 0 -31 -23l-66 -313q-2 -16 6.5 -27.5 t24.5 -11.5h262l-12 -39l-21 -82l-10 -8q-5 -1 -16 -12q-15 -22 -15 -58q0 -13 19 -16zM719 250h62v375h-62v-375z" />
<glyph unicode="&#xf33f;" d="M522 781h13q38 0 64 -24t26 -58q0 -33 -11.5 -62.5t-37.5 -50.5l-6 -23h180q23 0 42 -9.5t31.5 -25.5t18 -36.5t0.5 -42.5l-69 -312q-5 -34 -31.5 -54t-57.5 -20h-528v500h145l211 210zM531 629q5 1 16 12q16 24 16 58q0 14 -20 16l-199 -195v-395h340q25 0 31 23l66 313 q2 16 -6.5 27.5t-24.5 11.5h-262l12 39l18 70l4 12zM281 125v375h-62v-375h62z" />
<glyph unicode="&#xab124;" d="M293 194q-61 1 -114 24t-93 63t-63 93t-23 114t23 114t63 92.5t93 62.5t114 23q59 0 111 -21.5t91.5 -59.5t63.5 -89t27 -110q3 -111 -68 -200l256 -258q12 -14 4 -28t-22 -14q-9 0 -16 7l-258 258q-40 -35 -88 -53t-101 -18zM293 732q-51 0 -95.5 -19t-77.5 -52 t-52 -77.5t-19 -95.5q0 -50 19 -94.5t52 -77.5t77.5 -52.5t94.5 -19.5q51 0 95.5 19t78 52t52.5 77.5t19 95.5t-19 95.5t-52 77.5t-77.5 52t-95.5 19z" />
<glyph unicode="&#xab312;" d="M24 635q-12 0 -17.5 7.5t-5.5 17t5.5 17t17.5 7.5h733q12 0 18 -7.5t6 -17t-6 -17t-18 -7.5h-733zM24 98q-12 0 -17.5 7.5t-5.5 17t5.5 17t17.5 7.5h733q12 0 18 -7.5t6 -17t-6 -17t-18 -7.5h-733zM24 366q-12 0 -17.5 7.5t-5.5 17t5.5 17t17.5 7.5h733q12 0 18 -7.5 t6 -17t-6 -17t-18 -7.5h-733z" />
<glyph d="M456 419q10 10 20.5 14t21.5 4q18 0 33.5 -10.5t24 -26t7 -34t-18.5 -35.5q-10 -10 -20.5 -14t-21.5 -4q-18 0 -33.5 10.5t-24 26t-6.5 34.5t18 35zM456 169q10 10 20.5 14t21.5 4q18 0 33.5 -10.5t24 -26t7 -34t-18.5 -35.5q-10 -10 -20.5 -14t-21.5 -4 q-18 0 -33.5 10.5t-24 26t-6.5 34.5t18 35zM456 669q10 10 20.5 14t21.5 4q18 0 33.5 -10.5t24 -26t7 -34t-18.5 -35.5q-10 -10 -20.5 -14t-21.5 -4q-18 0 -33.5 10.5t-24 26t-6.5 34.5t18 35z" />
</font>
</defs>
</svg>
