<?xml version="1.0" standalone="no"?>
<!DOCTYPE svg PUBLIC "-//W3C//DTD SVG 1.1//EN" "http://www.w3.org/Graphics/SVG/1.1/DTD/svg11.dtd" >
<svg xmlns="http://www.w3.org/2000/svg" xmlns:xlink="http://www.w3.org/1999/xlink" version="1.1">
<metadata>
Created by FontForge 20170924 at Sun Nov 10 18:04:38 2019
 By www-data
Copyright (c) 2019 by Ahmed Ait Attman. All rights reserved.
</metadata>
<defs>
<font id="Ammouri-Tifinagh-Regular" horiz-adv-x="502" >
  <font-face 
    font-family="Ammouri Tifinagh"
    font-weight="400"
    font-stretch="normal"
    units-per-em="1000"
    panose-1="0 0 0 0 0 0 0 0 0 0"
    ascent="800"
    descent="-200"
    bbox="-0.2 -102 917.941 777"
    underline-thickness="50"
    underline-position="-100"
    unicode-range="U+000D-2D7F"
  />
<missing-glyph horiz-adv-x="500" 
 />
    <glyph glyph-name=".notdef" horiz-adv-x="500" 
 />
    <glyph glyph-name="uni0000" horiz-adv-x="0" 
 />
    <glyph glyph-name="uni0000" horiz-adv-x="0" 
 />
    <glyph glyph-name="uni000D" unicode="&#xd;" horiz-adv-x="250" 
 />
    <glyph glyph-name="space" unicode=" " horiz-adv-x="320" 
 />
    <glyph glyph-name="parenright" unicode=")" horiz-adv-x="276" 
d="M133 2q-7 -14 -22 -23.5t-32 -12.5q-10 0 -21.5 6t-4.5 20q40 79 63.5 170.5t25.5 185.5t-19 185.5t-70 170.5q-5 7 -1 15.5t13.5 15.5t21.5 11.5t23 4.5q16 0 23 -11q50 -80 72.5 -173.5t21 -190.5t-25.5 -192.5t-68 -181.5z" />
    <glyph glyph-name="asterisk" unicode="*" 
d="M434 385q13 0 17 -10t-1 -21.5t-20 -21.5t-40 -10h-72l72 -71q8 -6 9 -13.5t-2 -14.5t-9.5 -12t-14.5 -5q-10 0 -19 9l-76 71v-94q0 -13 -8 -19.5t-19 -6.5q-10 0 -18 6.5t-8 19.5v94l-76 -71q-10 -9 -20 -9q-8 0 -14.5 5t-9.5 12t-1 15t9 13l71 71h-116q-13 0 -17 10
t2 21.5t21 21.5t39 10h71l-71 71q-9 6 -10 13.5t3 15t11 12.5t15 5q10 0 17 -10l76 -76v99q0 13 8 19t18 6q11 0 19 -6t8 -19v-99l76 76q7 10 17 10q8 0 15 -5t10.5 -12.5t3 -15t-9.5 -13.5l-72 -71h116z" />
    <glyph glyph-name="plus" unicode="+" 
d="M434 380q13 0 17 -10t-1 -21.5t-20 -21.5t-40 -10h-98v-116q0 -9 -6 -17t-15 -14t-19.5 -9.5t-19.5 -3.5t-15 4t-6 13v143h-143q-13 0 -17 10t2 21.5t21 21.5t39 10h98v116q0 9 6 17t14.5 14t19 9.5t19.5 3.5q22 0 22 -17v-143h142z" />
    <glyph glyph-name="comma" unicode="," horiz-adv-x="271" 
d="M105 -40q6 7 11 14q5 5 9.5 12t6.5 14q-23 23 -25.5 43.5t6.5 36t26.5 24.5t34.5 9q19 0 33 -11.5t14 -39.5q2 -28 -9.5 -55.5t-31 -49.5t-45 -37t-52.5 -19q-3 0 -5.5 -0.5t-4.5 -0.5q-11 0 -18 6.5t-4 17.5q5 12 20.5 24t33.5 12z" />
    <glyph glyph-name="hyphen" unicode="-" 
d="M434 377q14 0 17.5 -11t-3.5 -25q-11 -14 -26 -20.5t-32 -6.5h-322q-14 0 -17 11t3 25q22 27 59 27h321z" />
    <glyph glyph-name="period" unicode="." horiz-adv-x="231" 
d="M87 0q-23 0 -31 17t-3.5 38t20.5 38t41 17q5 0 9 -0.5t9 -1.5q17 0 29.5 -14.5t10.5 -33.5q-2 -22 -7 -34t-14.5 -18t-25 -7t-38.5 -1z" />
    <glyph glyph-name="slash" unicode="/" horiz-adv-x="623" 
d="M143 27q-13 -12 -28.5 -19t-28.5 -7t-18.5 8.5t2.5 26.5l443 643q8 12 24 19.5t30 7.5t21 -8t-3 -27z" />
    <glyph glyph-name="zero" unicode="0" horiz-adv-x="545" 
d="M110 69q-32 48 -47 113t-13 135t20.5 139t54 123.5t88 88.5t121.5 36q7 0 10 -4.5t5.5 -11t4.5 -13.5t6 -12q51 -27 81.5 -75t43 -107.5t7.5 -125t-25 -127t-54 -114t-79 -86.5q-48 -28 -99 -28q-36 0 -69 16.5t-56 52.5zM258 632q-49 -30 -80 -84t-45 -118t-12 -129.5
t20 -119.5t50.5 -88t78.5 -34q30 3 58.5 37t50 85.5t32 114t2.5 123.5t-37 114t-87 85q-4 2 -4.5 5t-0.5 7t-1 6.5t-5 2.5q-6 0 -20 -7z" />
    <glyph glyph-name="one" unicode="1" horiz-adv-x="434" 
d="M374 44q0 -9 -6 -17t-15 -14t-19.5 -9.5t-19.5 -3.5t-15 4t-6 13v568l-165 -197q-14 -14 -28.5 -20t-26.5 -6q-16 0 -22 10t6 25l246 286q5 5 22 12.5t31 7.5q8 0 13 -3.5t5 -11.5v-644z" />
    <glyph glyph-name="two" unicode="2" horiz-adv-x="490" 
d="M221 384q7 14 14 27.5t13 30.5q-3 0 -6 -2t-8 -2q-16 -3 -31 -3q-43 0 -73 22t-42.5 54t-7 69t33.5 68q24 29 60 43.5t73 14.5q29 0 55.5 -9t45.5 -26t26.5 -43t-0.5 -60q-19 -67 -48.5 -129.5t-62.5 -124.5t-65 -125t-57 -131l282 22q13 0 16.5 -10t-2 -21.5
t-20.5 -21.5t-39 -10l-309 -18q-11 3 -16 10t-2 17zM163 590q0 -29 7 -47.5t20.5 -29t33.5 -14.5t46 -4q15 39 16.5 67t-6 46t-21.5 26.5t-30 8.5q-20 0 -39 -13.5t-27 -39.5z" />
    <glyph glyph-name="three" unicode="3" horiz-adv-x="468" 
d="M180 65q34 16 66 54.5t50 84.5t17 93t-34 81q-17 14 -33 19.5t-30 5.5q-25 0 -46.5 -9t-38.5 -9q-10 0 -18 5t-5 14.5t11.5 21t20.5 22.5t22 19q17 17 37.5 35t41.5 37t40.5 39t32.5 41q14 14 14 18.5t-8 4.5q-5 0 -12.5 -0.5t-15.5 -0.5l-220 1q-19 5 -20.5 15t7 20.5
t23 18.5t26.5 8h5q21 -5 43 -7t44 -2q34 0 67 2t65 2q9 0 22 2t26 2q11 0 19.5 -2t13.5 -10q10 -11 3 -30t-24 -42t-40.5 -48t-46.5 -46.5t-41.5 -38t-25.5 -23.5q60 -2 94 -25t48 -58t10.5 -78t-20 -86t-43 -82t-58.5 -65q-40 -37 -85 -52t-80 -15q-19 0 -33 3.5t-20.5 9.5
t-3.5 14t17 17q11 12 21 16.5t19 4.5q13 0 24 -4.5t25 -4.5q6 0 12.5 1t14.5 6z" />
    <glyph glyph-name="four" unicode="4" horiz-adv-x="585" 
d="M342 680q7 6 23 13t30 7q19 0 19 -15l13 -390q20 0 43.5 2.5t46.5 2.5q13 0 16.5 -10t-1.5 -21.5t-20 -21.5t-40 -10h-45l-13 -197q0 -21 -19 -30.5t-37 -9.5q-11 0 -18.5 3.5t-5.5 10.5l8 219q-32 -3 -65 -5.5t-66 -2.5q-38 0 -75 4t-75 13q-9 0 -10.5 9.5t2.5 24
t11.5 32t15 33t13.5 26.5t8 13q23 42 52 81t60.5 76t64.5 72.5t64 70.5zM334 586q-25 -32 -55.5 -66t-58.5 -71t-50.5 -76.5t-32.5 -81.5q41 -6 85 -6q31 0 61 2t59 4z" />
    <glyph glyph-name="five" unicode="5" horiz-adv-x="487" 
d="M142 427q31 8 67 14.5t71 6.5q30 0 57.5 -6t49 -20.5t35 -38.5t15.5 -60q2 -34 -9.5 -71.5t-31.5 -73.5t-47.5 -68.5t-59 -57t-65 -39t-65.5 -14.5q-27 0 -52 11t-46 36q-8 8 -5 17t11.5 17t21 13.5t23.5 5.5q6 0 11.5 -1.5t8.5 -6.5q15 -12 31 -22t36 -10
q22 0 47.5 22.5t48 56.5t39 74t18.5 76.5t-13 63.5t-54 34q-12 3 -24 4t-24 1q-33 0 -67.5 -8t-68.5 -19q-6 -3 -15 -3q-8 0 -15.5 3.5t-9.5 13.5q-3 16 -6 40.5t-4 52.5t0 57.5t6 56t16 47.5t28 31q26 15 61 23t73 12t76.5 5t72.5 1h22q15 0 18 -10t-3.5 -21.5t-21 -21.5
t-34.5 -10l-210 -11q-14 -11 -18.5 -38t-4 -58.5t4 -61t5.5 -45.5z" />
    <glyph glyph-name="six" unicode="6" horiz-adv-x="514" 
d="M312 55q-30 -29 -57.5 -42.5t-53.5 -13.5q-36 0 -65.5 22.5t-50 59t-29.5 81.5t-4 90q6 68 38.5 140.5t83 136t115 110.5t135.5 65q29 0 36.5 -8.5t2.5 -18.5t-18 -18.5t-26 -8.5q-58 -13 -107 -53.5t-86 -94.5t-61 -115t-32 -117q11 7 20 8t20 1q49 -3 90.5 -20.5
t64.5 -47t22 -69t-38 -87.5zM133 220q3 -19 8.5 -45t16 -49.5t26 -40t37.5 -16.5q15 0 30 8q21 21 24 39t-5 33t-25 27.5t-37 21.5t-40 14.5t-35 7.5z" />
    <glyph glyph-name="seven" unicode="7" horiz-adv-x="466" 
d="M227 381l103 264q-22 1 -43 1.5t-41 0.5q-42 0 -83 -1t-84 -1q-5 0 -11 1t-10.5 3.5t-6.5 6.5t1 11q7 14 21.5 25t28.5 11q49 0 98 1t98 1q25 0 49.5 -0.5t49.5 -1.5q15 0 15.5 -20.5t-8 -52t-23.5 -70t-30.5 -74.5t-29 -64.5t-18.5 -40.5h94q14 0 16.5 -9t-3.5 -20
t-21 -20t-37 -9h-71q-31 -68 -51.5 -138t-15.5 -144q1 -8 -4.5 -15.5t-14.5 -13t-20 -9t-20 -3.5t-15.5 4t-6.5 15q-3 38 2 77t14.5 78t23 76.5t27.5 72.5h-90q-13 0 -16.5 9t2.5 20t20.5 20t38.5 9h72z" />
    <glyph glyph-name="eight" unicode="8" horiz-adv-x="461" 
d="M387 612q-23 -57 -61 -107.5t-78 -101.5q10 -16 26 -40.5t33.5 -53t34 -59.5t27.5 -60.5t13.5 -55.5t-8.5 -45q-12 -22 -31.5 -38.5t-43 -27.5t-49.5 -16.5t-52 -5.5q-34 0 -57 8q-42 10 -62 36t-24 60.5t5 74t24.5 77.5t34.5 70.5t35 52.5q-10 16 -29 45.5t-36.5 62.5
t-29.5 64.5t-8 51.5q3 27 21.5 46t46 30t60 16t64.5 5q29 0 55 -3.5t44 -9.5q8 7 21 11.5t25 4.5q11 0 18 -5.5t3 -19.5q0 -3 -2 -8.5t-2 -9.5q7 -5 7 -11t-3.5 -12.5t-9 -12l-8.5 -8.5h-4v-5zM177 71q8 -4 24.5 -6t33.5 -2q20 0 38 3.5t24 12.5q3 36 -7 68.5t-26.5 62.5
t-36.5 58.5t-37 57.5q-14 -20 -28 -56t-19.5 -74.5t1 -73t33.5 -51.5zM212 456q30 37 56 77.5t43 87.5q-5 8 -30.5 13t-56.5 5q-19 0 -37 -2t-31 -6t-19 -11t-1 -16q11 -41 33.5 -77.5t42.5 -70.5z" />
    <glyph glyph-name="nine" unicode="9" horiz-adv-x="407" 
d="M102 7q-18 -6 -29 -6q-13 0 -18.5 5.5t-4.5 14t9.5 17t24.5 14.5q33 14 59.5 40t47.5 60t36 74t25 80.5t14.5 79.5t4.5 72q-19 -19 -43.5 -28.5t-50.5 -9.5q-39 0 -70.5 22.5t-36.5 69.5q-5 33 7 67t34.5 61.5t53.5 45.5t63 18q22 0 43 -9q45 -21 66.5 -73.5t23 -121.5
t-16 -146t-51 -146.5t-82 -123.5t-109.5 -77zM275 494q-10 82 -30 114t-40 32q-13 0 -25 -10.5t-19.5 -27t-9.5 -37t4 -39.5q10 -26 21 -35.5t23 -9.5q15 0 30.5 8t30.5 8q8 0 15 -3z" />
    <glyph glyph-name="colon" unicode=":" horiz-adv-x="232" 
d="M183 480q0 -14 -8 -24.5t-20.5 -18t-28 -11t-29.5 -3.5q-11 0 -22 3q-13 7 -21 22t-1 32q6 20 26.5 35.5t41.5 15.5q3 0 6 -0.5t7 -1.5q7 0 15.5 -4.5t16 -12t12.5 -16t5 -16.5zM183 56q0 -15 -8.5 -25.5t-21.5 -17t-28.5 -10t-30.5 -3.5q-5 0 -9.5 0.5t-9.5 1.5
q-13 7 -21 22t-1 32q6 20 26.5 35.5t41.5 15.5q3 0 6 -0.5t7 -1.5q7 0 15.5 -4.5t16 -12t12.5 -16t5 -16.5z" />
    <glyph glyph-name="semicolon" unicode=";" horiz-adv-x="280" 
d="M83 -101q-5 -1 -13 -1q-15 0 -18 9.5t2.5 20.5t19 20.5t31.5 9.5q6 7 11 14q5 5 9.5 12t6.5 14q-23 23 -25.5 43.5t6.5 36t26.5 24.5t34.5 9q19 0 33 -11.5t14 -39.5q2 -28 -9.5 -55.5t-31 -49.5t-45 -37t-52.5 -19zM122 176q-21 11 -24 29t6 35t26.5 29t36.5 12
q4 0 7 -0.5t7 -1.5q7 0 15.5 -4.5t16 -12t12.5 -16t5 -16.5q0 -14 -8.5 -24.5t-21.5 -18t-28.5 -11t-29.5 -3.5q-11 0 -20 3z" />
    <glyph glyph-name="less" unicode="&#x3c;" horiz-adv-x="466" 
d="M57 321q-11 6 -7 15t12 16q70 71 140 141l141 141q8 8 21 14.5t27 6.5q8 0 15 -3q7 -2 9 -6.5t1 -10t-4 -11t-6 -8.5l-264 -264l268 -269q8 -7 5 -16.5t-11.5 -17t-21 -13t-23.5 -5.5q-14 0 -21 8q-70 70 -140 140.5t-141 141.5z" />
    <glyph glyph-name="equal" unicode="=" 
d="M448 236q-11 -14 -26 -20.5t-32 -6.5h-322q-14 0 -17 11t3 25q22 27 59 27h321q14 0 17.5 -11t-3.5 -25zM448 383q-11 -14 -26 -20.5t-32 -6.5h-322q-14 0 -17 11t3 25q22 27 59 27h321q14 0 17.5 -11t-3.5 -25z" />
    <glyph glyph-name="greater" unicode="&#x3e;" horiz-adv-x="466" 
d="M56 620q-8 8 -5 17t12 16.5t21.5 12.5t23.5 5q12 0 19 -6q72 -71 141.5 -141.5t140.5 -140.5q11 -7 6.5 -16t-10.5 -15q-71 -71 -141 -141.5t-141 -140.5q-11 -8 -23 -14.5t-26 -6.5q-6 0 -14 3q-13 4 -10 16.5t10 19.5q67 67 132 131.5t132 132.5z" />
    <glyph glyph-name="question" unicode="?" horiz-adv-x="474" 
d="M301 206q0 -9 -6 -17t-15.5 -14t-20.5 -9.5t-20 -3.5q-10 0 -16.5 4t-6.5 13v56.5t4 53.5t13.5 51t27.5 49q15 17 30.5 37.5t28 43.5t19 48t3.5 50q-3 16 -12 30t-22.5 24t-29.5 16t-32 6q-18 0 -34 -8.5t-27 -27.5q-10 -20 -11 -38t3 -38q3 -9 -2 -17.5t-14.5 -15
t-21.5 -11t-23 -4.5q-17 0 -20 12q-8 29 -4.5 55.5t16 49.5t32.5 43t45 35q20 11 44.5 17.5t50.5 6.5q33 0 63.5 -11.5t51.5 -38.5q22 -25 27 -54.5t-1.5 -59.5t-21 -59.5t-31.5 -54.5q-17 -24 -36 -48.5t-26 -54.5q-7 -27 -6 -58t1 -58zM216 80q0 8 6 15.5t15.5 13.5
t20.5 9.5t20 3.5q23 0 23 -20v-57q0 -9 -6 -17t-15.5 -14t-20.5 -9.5t-20 -3.5q-10 0 -16.5 4t-6.5 13v62z" />
    <glyph glyph-name="uni2D30" unicode="&#x2d30;" horiz-adv-x="401" 
d="M144 0q-33 5 -54.5 27.5t-31.5 54t-7.5 68t16.5 68.5t40.5 54.5t64.5 27.5q23 15 48 15t48.5 -12.5t42 -33t29.5 -47.5t11 -56q0 -36 -17.5 -66.5t-45 -52.5t-63 -34.5t-71.5 -12.5h-10zM221 65q27 11 38.5 39t7 59t-25 58t-56.5 34q-18 -4 -30.5 -20.5t-18 -38
t-4.5 -45.5t8.5 -44t21 -33t34.5 -13q13 0 25 4z" />
    <glyph glyph-name="uni2D31" unicode="&#x2d31;" horiz-adv-x="637" 
d="M323 0q-65 3 -114 28.5t-83 67t-52.5 94t-22.5 109t7 113.5t35.5 106t63.5 86.5t91 56.5q0 23 21 33.5t42 11.5q69 -2 120.5 -33.5t85.5 -81t50.5 -111.5t16.5 -127t-17 -127.5t-49.5 -112t-81.5 -80.5t-113 -33zM499 304q-13 16 -49 22t-82 6q-33 0 -68 -2.5t-66.5 -6
t-57.5 -8t-40 -7.5q5 -58 24.5 -103t48 -76.5t63.5 -48t69 -16.5q31 0 60 14t51 43.5t35 74.5t12 108zM499 384q0 32 -11.5 66t-30.5 65.5t-44 58.5t-53 43q-14 -8 -23 -10.5t-15 -2.5q-11 0 -19 4t-28 4q-28 0 -48.5 -12.5t-36 -33.5t-25.5 -48t-16 -55.5t-9 -56t-4 -49.5
q56 17 114 25t124 8q59 0 125 -6z" />
    <glyph glyph-name="uni2D32" unicode="&#x2d32;" horiz-adv-x="634" 
d="M249 667q1 21 18.5 29t40.5 8q25 0 50 -5.5t38 -9.5q73 -33 117 -95t60.5 -137t7.5 -153t-41 -144t-86.5 -110t-127.5 -50q-64 0 -113 25t-83 66.5t-53 95.5t-23.5 112t5.5 116.5t34.5 108.5t63.5 88t92 55zM331 337q-1 -10 -2 -29.5t-1 -43t2 -48.5t7 -46t14 -36.5
t23 -19.5q3 0 6 -0.5t7 -0.5q39 0 63.5 22.5t32.5 76.5q4 18 7 35t4.5 31t2 22.5t-1.5 8.5q-8 8 -28.5 13t-45 8t-49 5t-41.5 2zM499 384q0 36 -12.5 72t-33.5 68t-49.5 58.5t-61.5 43.5l-6 -237zM311 76q-15 7 -24 22t-14 43.5t-7 73.5t-4 111q-30 0 -62.5 -5.5
t-62.5 -11.5q5 -45 21.5 -89t44.5 -79t66 -57t87 -22h13.5t13.5 2q-18 3 -36 4t-36 8zM270 621q-23 0 -42 -15t-33.5 -39t-25 -53.5t-17.5 -58.5t-10.5 -55t-4.5 -42q30 10 61 16.5t64 9.5z" />
    <glyph glyph-name="uni2D33" unicode="&#x2d33;" horiz-adv-x="619" 
d="M307 237l-184 -219q-11 -8 -25.5 -13.5t-26.5 -5.5q-15 0 -20.5 9.5t10.5 31.5q12 8 29 26t37 41t41 49.5t40.5 51.5t35.5 45.5t26 32.5l-102 157q-12 20 -21.5 41t-12.5 42t1 43t19 43q18 26 42.5 43.5t53 28t59.5 15.5t62 5q41 0 78 -6q51 -11 69 -38.5t13.5 -64.5
t-25.5 -79t-47.5 -81.5t-53 -73t-41.5 -52.5l201 -260q7 -8 3.5 -17t-12.5 -17t-21 -13.5t-23 -5.5q-12 0 -18 8zM325 362q17 20 35.5 46.5t36.5 56t33 60.5t24 61q-2 15 -13 26t-27.5 19t-36.5 12t-41 4q-25 0 -49.5 -6t-42 -18t-25.5 -30.5t-2 -43.5q2 -9 7 -19.5t16 -30
t31.5 -52t53.5 -85.5z" />
    <glyph glyph-name="uni2D34" unicode="&#x2d34;" horiz-adv-x="548" 
d="M290 506q4 7 15 24.5t26 40t32.5 46t36.5 43.5t37 33t33 13q13 0 21 -8q9 -7 7 -14.5t-8 -14t-12 -11t-5 -5.5q-38 -50 -75 -99.5t-72 -101.5l143 -273q24 -49 14 -83.5t-40.5 -55.5t-75.5 -30.5t-93 -9.5q-36 0 -69.5 4.5t-60.5 13t-44.5 20t-19.5 25.5q-6 22 0 52
t20 64.5t33 70.5t38.5 69t37 60.5t28.5 45.5q-13 25 -29.5 54.5t-37 58.5t-43 55t-47.5 42q-25 15 -27 27.5t8 21.5t26 14t28 5q18 0 44.5 -25t52 -58t47.5 -65.5t31 -48.5zM174 175q-13 -31 -6 -53.5t26.5 -37.5t47.5 -22t56 -7q23 0 43 4.5t34.5 12.5t21 20t1.5 28
q-27 63 -59 124.5t-67 121.5q-25 -47 -51 -93.5t-47 -97.5z" />
    <glyph glyph-name="uni2D35" unicode="&#x2d35;" horiz-adv-x="548" 
d="M314 429q25 -39 58.5 -86.5t61 -95t42 -92t1.5 -79t-60 -55.5t-143 -21q-15 0 -45.5 2.5t-62 9t-56.5 19t-28 32.5q-6 21 -0.5 49t18 60.5t29.5 66t35 64.5t34 57t27 43q-7 11 -22 32t-33.5 46t-38.5 52.5t-36.5 52.5t-29 45t-15.5 31q-2 11 7.5 19.5t24.5 14t31.5 8.5
t26.5 3q35 -5 70 -6.5t70.5 -3t70.5 -5.5t71 -13q7 9 21.5 18t29.5 9q10 0 20 -8q7 -5 3.5 -16t-12.5 -24t-21.5 -26.5t-22.5 -23.5zM180 85q7 -2 23.5 -6t38.5 -8t46.5 -7t46.5 -3t37 4q30 8 27.5 35t-23.5 66t-53 85.5t-62 92.5l-16 -28t-26.5 -48t-28 -56.5t-21 -56
t-6 -45.5t16.5 -25zM373 622q-91 22 -206 22l107 -161z" />
    <glyph glyph-name="uni2D36" unicode="&#x2d36;" 
d="M211 659q-1 8 4.5 15.5t14 13t19.5 9t20 3.5q10 0 16.5 -4t6.5 -15q7 -79 7.5 -158.5t-1 -159t-4 -159t-2.5 -158.5q0 -9 -6 -17t-15 -13.5t-19.5 -9t-19.5 -3.5t-15 4t-6 13q0 80 2.5 160t4 159.5t1 159.5t-7.5 160zM372 663q0 9 6 17t15 14t19.5 9.5t19.5 3.5t15 -4
t6 -12v-81q0 -9 -6 -17t-15 -14t-19.5 -9.5t-19.5 -3.5t-15 4t-6 13v80zM131 610q0 -9 -6 -17t-15 -14t-19.5 -9.5t-19.5 -3.5t-15 4t-6 13v80q0 9 6 17t15 14t19.5 9.5t19.5 3.5t15 -4t6 -12v-81z" />
    <glyph glyph-name="uni2D37" unicode="&#x2d37;" horiz-adv-x="705" 
d="M695 144q-18 -16 -35 -34t-35 -34.5t-38.5 -31.5t-44.5 -25q-28 -15 -51 -15q-26 0 -43.5 17.5t-29 43.5t-20 57t-16.5 58q-31 98 -56 194.5t-48 194.5q-25 -65 -52.5 -131t-53.5 -132.5t-49 -134t-41 -135.5q-5 -14 -24 -24t-36 -10q-11 0 -18 6t-2 20q20 83 47 162.5
t58.5 157.5t66.5 154.5t72 152.5q2 9 9.5 18t19 16.5t24 12.5t22.5 5q16 0 20 -13q18 -72 33.5 -153t34.5 -162t44.5 -158.5t62.5 -143.5q6 -6 13 -6q12 0 28 12.5t31 28t27 30.5t17 20q10 10 23 15t25 5q8 0 14.5 -2.5t9.5 -7.5t1 -12t-10 -16z" />
    <glyph glyph-name="uni2D38" unicode="&#x2d38;" horiz-adv-x="647" 
d="M1 663q-3 8 1.5 15.5t13.5 13.5t20.5 9.5t21.5 3.5q9 0 15.5 -3t8.5 -11q9 -42 36 -109.5t62.5 -146t74 -159.5t69.5 -150q32 67 60.5 136.5t56.5 138.5t58 137.5t66 134.5q8 16 24.5 23.5t31.5 7.5q14 0 22 -6t2 -17q0 -3 -2 -4t-2 -4q-76 -151 -141.5 -310t-135.5 -326
q-3 -6 -9.5 -12t-14.5 -11.5t-17.5 -8.5t-17.5 -3q-17 0 -22 13q-79 152 -150.5 314t-131.5 334z" />
    <glyph glyph-name="uni2D39" unicode="&#x2d39;" horiz-adv-x="508" 
d="M354 644q-4 1 -12 1q-22 0 -47.5 -8t-49.5 -21t-44 -30t-31 -36q-14 -44 -22 -89t-9 -95l215 10q12 0 16 -10t-1.5 -21.5t-20 -21.5t-39.5 -10l-175 -4q0 -16 -1 -49.5t0 -71t5 -72t14 -53.5q13 0 31 -0.5t38 -0.5q23 0 47 1.5t45.5 6.5t38 14t24.5 24q8 16 24 24t33 8
q10 0 19.5 -6.5t3.5 -17.5q-22 -41 -58.5 -64.5t-80 -35t-90 -14t-90.5 -2.5h-39q-19 4 -30.5 42t-16 95t-1.5 125t11.5 132t24 116t35.5 76q21 21 49.5 42t61.5 38t68.5 27.5t68.5 10.5q8 0 15 -0.5t14 -1.5q14 0 19 -8.5t-6 -22.5q-12 -17 -24.5 -22t-32.5 -5z" />
    <glyph glyph-name="uni2D3A" unicode="&#x2d3a;" horiz-adv-x="437" 
d="M204 689q56 -21 94 -74t59.5 -121t28.5 -144t1 -143.5t-24.5 -118.5t-47.5 -70q-15 -9 -38 -13.5t-50 -4.5q-24 0 -49.5 3.5t-48.5 10t-42 15.5t-31 20q-8 7 -5 15.5t12 16.5t22 13.5t24 5.5q12 0 18 -6q4 -4 18 -9.5t32 -11t37.5 -9.5t34.5 -4q14 0 22 3.5t8 13.5
q20 57 23 116.5t0 119.5l-210 10q-13 0 -16.5 9t2.5 19.5t21 19.5t38 9h160q-8 50 -22 97t-40 84.5t-66 60t-100 22.5q-15 0 -18 10t4.5 22t25 22t45.5 10q17 0 36 -4t42 -15z" />
    <glyph glyph-name="uni2D3B" unicode="&#x2d3b;" horiz-adv-x="431" 
d="M255 697q38 -8 60 -31t28.5 -52.5t-1.5 -61.5t-29.5 -59t-56 -44.5t-79.5 -17.5q-6 0 -12 0.5t-13 1.5q-37 3 -58.5 23.5t-29 50.5t-1.5 64t25 63.5t49.5 48.5t72.5 19q11 0 22 -1t23 -4zM219 274q46 0 75 -20.5t41.5 -50.5t8.5 -66t-25 -66t-59 -50.5t-93 -20.5
q-4 0 -7.5 0.5t-7.5 0.5q-37 5 -59 27t-29.5 52.5t-1 64.5t25 62.5t49.5 47.5t72 19h10zM143 572q0 -43 19 -62t42 -19t41.5 16.5t18.5 46.5q0 41 -22.5 63.5t-48.5 22.5q-20 0 -35 -16.5t-15 -51.5zM143 145q0 -45 19 -64t42 -19t41.5 17t18.5 47q0 17 -7.5 32.5
t-18.5 27.5t-25 19.5t-27 7.5q-18 0 -30.5 -15.5t-12.5 -52.5zM363 383q14 0 17 -9t-3 -20t-21 -20t-38 -9q-60 0 -123 -4.5t-127 -4.5q-13 0 -16.5 9t2.5 20t21 20t38 9q61 0 123.5 4.5t126.5 4.5z" />
    <glyph glyph-name="uni2D3C" unicode="&#x2d3c;" horiz-adv-x="706" 
d="M516 67q7 -7 16 -7q15 0 29.5 17.5t27 40.5t22 45t13.5 30q8 17 25 24.5t31 7.5t21.5 -6.5t2.5 -17.5q-17 -35 -37 -70.5t-45.5 -64.5t-58.5 -47.5t-78 -18.5q-34 2 -54.5 22.5t-31 52t-13 70t-2 76t3.5 70.5t3 54l-62 -14q-1 -14 -3.5 -38.5t-6 -54t-8 -61t-11 -59.5
t-15 -50t-19.5 -32q-16 -19 -43 -27t-59 -8q-39 0 -77 12t-58 32q-8 8 -5 17.5t12.5 18t22.5 14t24 5.5t18 -6q19 -17 43.5 -22.5t58.5 -8.5q10 17 17.5 50t12.5 70.5t7.5 74t2.5 59.5q-7 -7 -16 -7t-16.5 7.5t-7.5 17.5t10 20.5t35 16.5q-1 14 0 39t1.5 54.5t-2 60.5
t-11 56.5t-24.5 41.5t-44 16q-31 0 -60.5 -13.5t-55.5 -27.5q-16 -8 -30 -8q-22 0 -21.5 19.5t28.5 37.5q21 7 42 16t42 16.5t42 12.5t43 5q9 0 18 -1.5t19 -3.5q44 -9 65 -42.5t28.5 -79t5 -95.5t-4.5 -92l71 14q6 42 13 82.5t20.5 78.5t35 72t56.5 62q8 6 18.5 9t19.5 3
q8 0 14.5 -2.5t8 -8.5t-3 -15t-16.5 -21q-21 -17 -37 -49t-26.5 -68.5t-15.5 -73.5t-6 -64q6 -2 22 -4.5t29 -7.5t17.5 -14t-11.5 -23q-10 -8 -23 -14t-30 -6q-3 0 -6.5 0.5t-7.5 0.5q-3 -25 -5.5 -62.5t0.5 -76.5t14.5 -74t35.5 -55z" />
    <glyph glyph-name="uni2D3D" unicode="&#x2d3d;" horiz-adv-x="738" 
d="M196 54q-18 -18 -42.5 -34.5t-47.5 -16.5q-16 0 -28 10.5t-20 36.5q-10 75 -7.5 151t10.5 153l16 154t8 154q-1 9 4 17t13.5 14t19.5 9.5t20 3.5q22 0 22 -17v-49q68 23 137.5 39t140.5 24q42 0 80 -5.5t61.5 -22t27 -47.5t-25.5 -82q-15 -31 -33.5 -58t-38.5 -52.5
t-40.5 -51t-39.5 -53.5q4 -13 12 -38.5t19 -55.5t25 -61.5t29.5 -56.5t32 -41.5t33.5 -16.5q8 0 17.5 6t20.5 13.5t23 14t25 8.5q24 -6 19 -21.5t-25 -33t-48.5 -31.5t-52.5 -17q-42 0 -74.5 26t-57 64t-40.5 80.5t-25 75.5zM156 587q-2 -48 -8.5 -116.5t-12 -140.5
t-5.5 -138.5t12 -110.5q41 45 90.5 100.5t97.5 113.5t90 113.5t69.5 101t36 76.5t-11.5 40q-10 11 -28 16t-42 5q-33 0 -74 -7.5t-81 -17.5t-75.5 -20t-57.5 -15z" />
    <glyph glyph-name="uni2D3E" unicode="&#x2d3e;" horiz-adv-x="397" 
d="M221 377q-4 9 0.5 17.5t14 16t22 12t23.5 4.5q16 0 20 -10q7 -20 16.5 -37t23.5 -34q9 -9 5.5 -18.5t-13 -17.5t-22.5 -13.5t-24 -5.5t-17 6q-14 20 -28 38.5t-21 41.5zM51 175q-3 10 3 19.5t16 16.5t22 11t22 4q15 0 18 -10q6 -20 18 -37t26 -34q8 -8 3.5 -18
t-14.5 -18.5t-23 -14t-23 -5.5q-11 0 -14 7q-17 20 -32 38t-22 41zM51 574q-2 9 3.5 17.5t15 15t21 10t21.5 3.5q17 0 20 -10q6 -21 18 -37.5t26 -29.5q7 -10 2.5 -19.5t-14.5 -17.5t-23 -13t-23 -5t-13 5q-17 17 -32 37.5t-22 43.5z" />
    <glyph glyph-name="uni2D3F" unicode="&#x2d3f;" horiz-adv-x="741" 
d="M432 394q12 -16 33 -40.5t43.5 -54t44.5 -62t36 -64t18 -60t-9 -50.5q-21 -35 -64 -49t-96 -14q-38 0 -77.5 5.5t-76.5 13t-68.5 16t-52.5 14.5q3 -10 -2 -19.5t-15 -17t-22 -11.5t-22 -4q-20 0 -19 17q0 18 -3 56.5t-7 90t-8 111.5t-5.5 119.5t1 115t10.5 98t23 68
t39 25.5h5q17 0 38 -14t44.5 -36.5t47 -49.5t44 -53t37 -47.5t25.5 -32.5q11 27 29.5 67t44 77t57.5 63t70 26q36 0 62.5 -10t49.5 -40q6 -9 2 -17.5t-14 -15t-23 -10t-25 -3.5q-11 0 -18 4t-7 12q-17 16 -34 16t-33.5 -14.5t-30.5 -37t-26.5 -50t-21.5 -54.5t-15.5 -49.5
t-8.5 -34.5zM137 604q-4 -60 -3 -120t5 -119.5t9.5 -119t10.5 -119.5q16 -5 51 -16.5t78 -23.5t88 -21.5t80 -9.5q27 0 45.5 7t24.5 23q-2 23 -26 64t-60 91.5t-80 105.5t-86.5 105.5t-79 91t-57.5 61.5z" />
    <glyph glyph-name="uni2D40" unicode="&#x2d40;" horiz-adv-x="635" 
d="M307 700q82 -3 140 -44.5t91 -105t42 -141t-6 -152t-54.5 -137.5t-102.5 -98q-44 -22 -96 -22q-36 0 -72 10.5t-67.5 30t-56.5 47.5t-39 63q-19 42 -28 91t-7.5 99.5t13.5 100.5t36 92.5t60.5 75.5t85.5 51q0 13 6 20.5t15 11.5t19.5 5.5t20.5 1.5zM458 545
q-13 19 -25.5 30t-24 18.5t-23 13t-23.5 13.5q-4 -137 -16 -280t-41 -277q22 -5 36 -5q45 0 76.5 27.5t51.5 71.5t28.5 98.5t6.5 109t-13.5 102.5t-32.5 78zM126 350q-2 -57 7 -102t26 -78t39.5 -55.5t46.5 -35.5q20 128 35 265t15 268q-43 -1 -74.5 -24t-51.5 -60
t-30.5 -83.5t-12.5 -94.5z" />
    <glyph glyph-name="uni2D41" unicode="&#x2d41;" horiz-adv-x="742" 
d="M275 661q0 11 6 19.5t15.5 14t20.5 8t21 2.5q60 -3 112 -33.5t89 -78.5q20 23 41 46.5t44 43.5q11 11 22.5 15.5t22.5 4.5q17 0 23.5 -10.5t-10.5 -27.5q-14 -11 -28.5 -25.5t-28 -31t-26.5 -33t-24 -31.5q11 -46 16.5 -104t2 -118t-18 -117.5t-44 -102.5t-75.5 -73
t-112 -29q-53 0 -95.5 19.5t-80.5 55.5q-32 -43 -56.5 -59t-39.5 -16q-17 0 -21 13.5t10 25.5q19 19 35 39.5t36 41.5q-25 41 -38.5 91.5t-15 104t10 107t35.5 100t62 83t89 55.5zM387 616q-19 -12 -36 -12q-15 0 -28.5 4.5t-29.5 4.5q-12 0 -27 -6q-42 -34 -66.5 -85
t-33 -108t-1 -115t29.5 -108l286 331q-17 30 -42 55t-52 39zM226 138q34 -41 76 -59t94 -18q38 0 63 24.5t40 62.5t21.5 85t6.5 92.5t-5.5 83.5t-13.5 59z" />
    <glyph glyph-name="uni2D42" unicode="&#x2d42;" horiz-adv-x="271" 
d="M125 10q-17 17 -32 34.5t-22 40.5q-2 11 3.5 20.5t15 16.5t21 11t21.5 4q17 0 19 -11q7 -20 19 -37.5t26 -34.5q8 -8 5 -17.5t-12 -17.5t-21 -13t-23 -5q-15 0 -20 9zM141 384q-10 0 -21.5 10t-21.5 24t-17.5 28.5t-9.5 23.5t3.5 17t15.5 15t21.5 11t20.5 4q17 0 19 -11
q7 -20 19 -36.5t26 -30.5q8 -10 4 -20t-13.5 -18t-22 -12.5t-23.5 -4.5zM141 187q-10 0 -21.5 10.5t-21.5 24.5t-17.5 28.5t-9.5 23.5q-2 8 3.5 16.5t15.5 15t21.5 10.5t20.5 4q16 0 19 -11q7 -20 19 -36.5t26 -30.5q8 -10 4 -20t-13.5 -18t-22 -12.5t-23.5 -4.5zM141 572
q-10 0 -21.5 10t-21.5 24t-17.5 28.5t-9.5 23.5t3.5 17t15 15t21 11t21.5 4q16 0 19 -12q7 -20 19 -36.5t26 -30.5q8 -10 4 -20t-13.5 -17.5t-22 -12t-23.5 -4.5z" />
    <glyph glyph-name="uni2D43" unicode="&#x2d43;" horiz-adv-x="675" 
d="M597 114q14 14 28.5 19.5t25.5 5.5q17 0 23 -9.5t-6 -25.5l-31.5 -31.5t-34.5 -30.5t-38.5 -24.5t-44.5 -14.5q-7 -1 -13.5 -1.5t-12.5 -0.5q-45 0 -74.5 30t-48.5 75t-30.5 96.5t-19.5 94.5q-48 -85 -111 -156.5t-144 -125.5q-10 -5 -20.5 -7.5t-19.5 -2.5
q-18 0 -23.5 11t18.5 35q73 47 132 115.5t105.5 149t79.5 169.5t54 178q0 11 6 19t14.5 13.5t19 8t19.5 2.5q11 0 17.5 -3.5t4.5 -11.5q-14 -72 -34.5 -138.5t-50.5 -130.5q10 -54 20.5 -117t24.5 -117.5t34.5 -91t50.5 -36.5q17 0 36.5 12.5t43.5 41.5z" />
    <glyph glyph-name="uni2D44" unicode="&#x2d44;" horiz-adv-x="639" 
d="M369 384q20 0 50 -1t60 -5.5t56.5 -14.5t40.5 -28q6 -10 9.5 -32t4 -50.5t0 -60.5t-2 -61t-3.5 -52t-4 -35q-1 -9 -8 -17t-17 -14t-21 -9.5t-20 -3.5t-15 4t-4 13l3.5 31.5t4.5 51t4 60t1.5 59t-3.5 48t-10 27.5q-4 8 -17 13.5t-31.5 8.5t-40.5 4.5t-45 1.5
q-42 0 -77.5 -3t-48.5 -7q-27 -11 -46.5 -43.5t-32 -73t-18 -82t-5.5 -69.5q1 -7 -4.5 -15t-13.5 -14.5t-18.5 -10.5t-19.5 -4q-16 0 -24 14t3 52q3 22 8 53t13.5 63t19.5 61t26 47q34 37 75.5 57.5t86.5 27.5l8 286q0 9 6.5 17t16 14t21 9.5t20.5 3.5t15.5 -4t6.5 -13z" />
    <glyph glyph-name="uni2D45" unicode="&#x2d45;" horiz-adv-x="609" 
d="M509 8q-10 7 -26.5 25t-36.5 42t-42 52t-42 54t-36.5 47.5t-26.5 33.5q-33 -54 -63 -110.5t-53 -117.5q-8 -16 -26.5 -25t-33.5 -9q-12 0 -18.5 6t-1.5 20q30 77 69 148.5t87 142.5q-62 85 -123 169.5t-113 169.5q-5 8 -1 16.5t13.5 15.5t22 11.5t22.5 4.5q17 0 23 -12
q32 -60 73.5 -117.5t86.5 -115.5v197q0 9 6 17t15 14t19.5 9.5t19.5 3.5t15 -4t6 -13v-250q45 60 86.5 118.5t78.5 122.5q8 11 24.5 18.5t30.5 7.5t20.5 -8t-2.5 -27q-51 -85 -111.5 -165t-117.5 -161q48 -69 108.5 -144t120.5 -142q9 -7 6.5 -16t-11.5 -16.5t-22.5 -13
t-25.5 -5.5q-13 0 -20 6z" />
    <glyph glyph-name="uni2D46" unicode="&#x2d46;" horiz-adv-x="558" 
d="M382 208q-4 9 0.5 17t13.5 15t21 11t22 4q19 0 24 -11q12 -38 39 -67q8 -10 4.5 -20t-13 -17.5t-22 -12t-23.5 -4.5q-13 0 -17 5q-14 17 -28.5 37t-20.5 43zM382 531q-4 8 0.5 16t13.5 15t21 11t22 4q17 0 24 -11q6 -20 16 -36.5t23 -30.5q8 -10 4.5 -20t-13 -18
t-22 -12.5t-23.5 -4.5q-12 0 -17 6q-14 17 -28.5 37t-20.5 44zM176 177q7 -10 2.5 -19.5t-14.5 -17t-22.5 -12.5t-22.5 -5q-11 0 -14 5q-17 17 -32 37t-22 43q-3 10 2.5 18.5t15.5 15t21.5 10t21.5 3.5q17 0 20 -11q6 -20 18 -36.5t26 -30.5zM176 499q7 -10 2.5 -19.5
t-14.5 -17.5t-22.5 -13t-22.5 -5q-11 0 -14 6q-17 17 -32 37t-22 44q-2 9 3.5 17.5t15 14.5t21 10t21.5 4q17 0 20 -11q6 -20 18 -36.5t26 -30.5z" />
    <glyph glyph-name="uni2D47" unicode="&#x2d47;" horiz-adv-x="686" 
d="M180 630q67 24 134.5 44.5t137.5 27.5q5 1 10.5 1h10.5q32 0 65 -9.5t55.5 -29t27.5 -48t-21 -66.5l-412 -487h41q85 0 170.5 3.5t169.5 22.5q21 11 40 11q18 0 25 -9t-3.5 -22t-42.5 -26t-91 -21q-86 -9 -174 -13t-188 -9q-17 0 -29 1.5t-20.5 6.5t-14.5 14.5t-12 26.5
q-6 29 -7.5 76.5t1 105.5t8.5 121t14 123t18 111t20 85q4 14 23 23t36 9q12 0 19 -5.5t3 -18.5zM171 573q-10 -58 -19 -117.5t-14 -119.5t-5.5 -121t6.5 -121l403 487q0 35 -25.5 48.5t-63.5 13.5q-37 0 -81.5 -9.5t-85 -21.5t-72 -23.5t-43.5 -15.5z" />
    <glyph glyph-name="uni2D48" unicode="&#x2d48;" horiz-adv-x="714" 
d="M51 364q-2 9 4 18t16 16.5t22 12t21 4.5q16 0 17 -11q7 -20 19 -37t26 -34q8 -9 4.5 -18.5t-13 -17.5t-22.5 -13.5t-24 -5.5t-16 6q-17 20 -32 38.5t-22 41.5zM534 360q-2 9 3.5 17t15 15t21 11t21.5 4q16 0 19 -11q7 -20 19 -36.5t26 -30.5q8 -10 4.5 -20t-13 -18
t-22.5 -12.5t-24 -4.5t-22.5 10t-21 24t-17 28.5t-9.5 23.5zM301 360q-2 9 3.5 17.5t15 15t21 10t21.5 3.5q17 0 20 -10q6 -20 18 -36.5t26 -30.5q8 -10 3.5 -19.5t-14.5 -17.5t-23 -13t-23 -5q-11 0 -14 6q-17 17 -32 37t-22 43z" />
    <glyph glyph-name="uni2D49" unicode="&#x2d49;" horiz-adv-x="483" 
d="M373 703q15 -4 17.5 -14.5t-4.5 -21.5t-22 -19t-35 -8q-16 0 -43.5 -10.5t-51 -28t-36 -39t0.5 -43.5q17 -29 40.5 -47t46 -29.5t40.5 -19.5t24 -17t-3 -22t-41 -35q-15 -10 -39.5 -28t-49.5 -41.5t-47 -50t-33 -53.5t-6.5 -52.5t32.5 -46.5q12 -10 26 -14t29 -4
q37 0 75 18.5t67 38.5q11 9 26.5 14.5t27.5 5.5q14 0 18.5 -9.5t-14.5 -32.5q-19 -16 -47 -32.5t-61 -30t-68 -22.5t-68 -9q-47 0 -81.5 24t-41.5 84q-4 38 16.5 76t52.5 73t68.5 65.5t63.5 53.5q-17 7 -41.5 20.5t-47 31.5t-38.5 39t-16 43q0 40 28 75t68.5 61.5t86 41.5
t81.5 15z" />
    <glyph glyph-name="uni2D4A" unicode="&#x2d4a;" horiz-adv-x="583" 
d="M472 643q-37 -3 -73.5 -4t-73.5 -4l17 -573q45 3 85.5 6t85.5 3q16 0 19 -9t-4 -20t-22 -20t-34 -9q-72 0 -142 -5.5t-139 -5.5q-29 0 -56.5 1t-55.5 6q-17 4 -19 13.5t5.5 19.5t21.5 17.5t28 7.5q6 0 9 -1q34 -3 67 -3.5t67 -0.5l-18 568q-41 0 -83.5 3.5t-86.5 9.5
q-16 0 -19 9.5t3.5 20.5t20.5 20.5t30 9.5q2 0 4.5 -0.5t4.5 -0.5q35 -5 71 -7t72 -2q60 0 119.5 3.5t118.5 5.5q25 0 30.5 -9t-0.5 -20.5t-21 -20.5t-32 -9z" />
    <glyph glyph-name="uni2D4B" unicode="&#x2d4b;" horiz-adv-x="707" 
d="M356 323q0 54 20 110.5t54 108t79.5 93t96.5 63.5q8 3 15.5 4t12.5 1q14 0 19 -6t3 -14.5t-10 -16.5t-22 -12q-36 -15 -70 -51t-60 -81t-41 -93t-12 -88q2 -40 15 -87.5t38 -88.5t61 -69.5t83 -31.5q19 -5 20 -15.5t-9 -21t-26 -18.5t-30 -8q-55 5 -99 36.5t-75 77.5
t-47 101t-16 107zM61 649q-12 3 -12 12t8 18.5t22 17t31 7.5h6.5t6.5 -1q60 -14 101.5 -61t64.5 -104q20 -51 28.5 -108.5t-2.5 -111.5q-8 -49 -25.5 -104t-47 -102t-72 -78t-101.5 -33q-10 0 -15.5 7.5t-2 18t18 21t44.5 16.5q23 0 41 17.5t31.5 44.5t23.5 60t16.5 64.5
t9.5 58t3 39.5q0 43 -10 90t-32 89.5t-55.5 75t-80.5 46.5z" />
    <glyph glyph-name="uni2D4C" unicode="&#x2d4c;" horiz-adv-x="825" 
d="M538 159h-246v-116q0 -9 -6 -17t-15 -14t-19.5 -9.5t-19.5 -3.5t-15 4t-6 13v143h-143q-15 0 -18 10t4 21.5t22 21.5t37 10l98 -4v268l-143 -5q-13 0 -16.5 10t1.5 21.5t20 21.5t40 10h98v116q0 9 6 17t15 14t19.5 9.5t19.5 3.5t15 -4t6 -13v-143l241 4v112q0 9 6 17
t15 14t19.5 9.5t19.5 3.5q20 0 20 -17v-139l144 -4q15 -4 17.5 -14t-5 -21t-22.5 -19.5t-35 -8.5l-94 5v-268l139 4q13 0 16.5 -10t-2 -21.5t-20.5 -21.5t-39 -10h-89v-116q0 -9 -6.5 -17t-16 -14t-20.5 -9.5t-20 -3.5q-22 0 -22 17v143zM533 490l-241 -4v-268h246z" />
    <glyph glyph-name="uni2D4D" unicode="&#x2d4d;" horiz-adv-x="617" 
d="M374 662q0 9 6 16.5t14.5 13.5t19 9t19.5 3t15 -3.5t6 -11.5q0 -31 -3.5 -60.5t-14.5 -55.5q-1 -14 -6 -57t-10 -99.5t-8.5 -119t-1 -114.5t12.5 -86t31 -34q32 8 47.5 24.5t26 34t21.5 30.5t35 13q6 2 10 2q11 0 18.5 -6.5t2.5 -17.5q-14 -28 -36 -53.5t-49 -44.5
t-58 -31t-63 -14q-30 0 -47.5 24t-25.5 62t-9.5 84.5t0.5 91t6 82.5t5 59q-31 -31 -62.5 -65t-58 -71.5t-46.5 -79t-30 -89.5q-4 -14 -5 -30t-4 -29.5t-11.5 -23t-28.5 -12.5q-4 -1 -12 -1q-18 0 -24 10t-6 28.5t3 44.5t3 58q0 127 -2.5 253.5t-2.5 265.5q-1 9 4.5 17
t14.5 13.5t20 9t20 3.5q22 0 22 -16l9 -421q24 33 56 65.5t62.5 66.5t56 71t36.5 79z" />
    <glyph glyph-name="uni2D4E" unicode="&#x2d4e;" horiz-adv-x="511" 
d="M399 702q16 0 18.5 -9t-4 -20.5t-19.5 -20.5t-30 -9q-6 0 -9 1q-5 1 -14 1q-24 0 -51 -9t-51.5 -24t-44 -35.5t-29.5 -43.5q-8 -9 -14.5 -47.5t-11 -90.5t-6 -110.5t1 -107.5t9 -81.5t18.5 -32.5q15 0 35 -1t43 -1q21 0 42 1.5t39.5 7t33 14.5t22.5 24q12 17 28.5 24
t30.5 7t21.5 -6t-0.5 -17q-22 -40 -56 -63t-75.5 -34.5t-87.5 -15t-91 -3.5h-25q-20 0 -31 6t-22 32q-10 31 -14.5 75t-4.5 91.5t2.5 94t6.5 81.5q7 51 18 94.5t31.5 80.5t53.5 66t85 50q30 14 61.5 23.5t62.5 9.5h14.5t13.5 -2z" />
    <glyph glyph-name="uni2D4F" unicode="&#x2d4f;" horiz-adv-x="221" 
d="M151 45q0 -9 -6 -17t-15 -14t-19.5 -9.5t-19.5 -3.5t-15 4t-6 13v643q0 9 6 17t15 14t19.5 9.5t19.5 3.5t15 -3.5t6 -12.5v-644z" />
    <glyph glyph-name="uni2D50" unicode="&#x2d50;" horiz-adv-x="744" 
d="M68 244q-13 0 -16.5 9t2.5 20t21 20t38 9h219v103l-264 -4q-13 0 -16.5 10t2 21.5t20.5 21.5t39 10h219v196q0 9 6 17t15 14t19 9.5t19 3.5t15 -4t6 -13v-223h264q15 -4 17.5 -14.5t-4.5 -21.5t-22 -19t-36 -8l-219 4v-103h264q14 0 17 -9t-3 -20t-21 -20t-38 -9h-219
v-201q0 -9 -6 -17t-14.5 -14t-19 -9.5t-19.5 -3.5t-15 4t-6 13v228h-264z" />
    <glyph glyph-name="uni2D51" unicode="&#x2d51;" horiz-adv-x="225" 
d="M70 664q0 8 6 15t15.5 12t20.5 8.5t21 3.5q9 0 15.5 -4t6.5 -13v-505q0 -8 -6.5 -16t-16.5 -14t-21.5 -9.5t-20.5 -3.5q-8 0 -14 3.5t-6 12.5v510zM70 60q0 8 6 15t15.5 12.5t20.5 8.5t21 3q9 0 15.5 -4t6.5 -12v-41q0 -8 -6 -15.5t-15.5 -13t-20.5 -9t-20 -3.5
q-10 0 -16.5 4t-6.5 15v40z" />
    <glyph glyph-name="uni2D52" unicode="&#x2d52;" horiz-adv-x="576" 
d="M285 458q79 -5 131.5 -31.5t79.5 -65.5t30 -85.5t-16.5 -93t-60.5 -88.5t-101 -70q-60 -23 -107 -23q-59 0 -95 37t-36 120q4 59 25 126.5t52.5 133t71 124t79.5 99.5q-57 0 -118 -4t-118 -27q-15 -9 -27 -9q-11 0 -17.5 6.5t-6.5 15t7.5 17.5t25.5 15q35 17 73 26.5
t78.5 14.5t81 6.5t79.5 1.5h50q11 0 17 -6.5t5.5 -15t-8 -17.5t-23.5 -15q-10 0 -24 -11t-28.5 -28t-30 -39t-29 -43t-24 -40t-16.5 -31zM295 58q36 5 68.5 33t53 66.5t25.5 80t-14 73.5q-11 18 -32 34t-45 29t-46 20.5t-35 7.5q-12 0 -12 -7q-9 -18 -21.5 -50t-22.5 -70
t-15.5 -76.5t0 -70.5t23.5 -52t55 -20q5 0 9 0.5t9 1.5z" />
    <glyph glyph-name="uni2D53" unicode="&#x2d53;" horiz-adv-x="402" 
d="M145 394q-41 3 -64 27t-29.5 58.5t2 74.5t29 73.5t52.5 56t72 22.5q18 0 37.5 -5t39.5 -16q34 -19 50.5 -48t18 -61.5t-11.5 -65t-37 -58.5t-59 -42.5t-77 -16.5h-11.5t-11.5 1zM145 0q-40 5 -62.5 30t-29 60t1.5 73.5t29 71.5t54 54.5t75 21.5q35 0 71 -16
q35 -22 52 -52t17.5 -63t-13.5 -65t-40 -57.5t-62.5 -41.5t-81.5 -16h-11zM266 161q-3 38 -25 62.5t-56 31.5q-24 -6 -36.5 -29.5t-14.5 -52t4.5 -56t20.5 -40.5q17 -18 38 -18q15 0 29.5 8.5t24.5 23t14.5 33t0.5 37.5zM257 488q12 22 12 47t-10 47t-29 39t-45 23
q-24 -2 -36 -25t-14.5 -52.5t4 -58.5t20.5 -43q19 -14 36 -14t32.5 10.5t29.5 26.5z" />
    <glyph glyph-name="uni2D54" unicode="&#x2d54;" horiz-adv-x="633" 
d="M565 496q18 -57 19 -126t-16.5 -135.5t-54.5 -123.5t-96 -89q-44 -22 -96 -22q-36 0 -72 10.5t-67.5 30.5t-56.5 48t-39 62q-19 42 -28 91t-7.5 99.5t13.5 100.5t36 92.5t60.5 75.5t85.5 51q0 11 6 18.5t15 12t20.5 6.5t21.5 2q44 -1 84 -18.5t73.5 -45t59 -64
t39.5 -76.5zM274 612q-33 0 -61 -22t-48.5 -58t-32 -82.5t-12 -96.5t11 -99t38.5 -90t70 -70t105 -38q4 -1 11 -1q38 0 71.5 34.5t56.5 88t32 119.5t-3 128.5t-49 114t-106 77.5q-19 -12 -40 -12q-17 0 -31 7h-13z" />
    <glyph glyph-name="uni2D55" unicode="&#x2d55;" horiz-adv-x="712" 
d="M701 62q-28 -28 -60 -44t-64 -16q-29 0 -56.5 13.5t-52.5 42.5q-30 -30 -67 -44t-77 -14q-35 0 -70.5 10.5t-67 30t-58 47.5t-44.5 63q-18 40 -26.5 88.5t-6.5 99.5t14.5 101.5t36.5 93.5t59.5 76.5t83.5 50.5q0 11 5.5 18.5t14.5 12t19.5 6.5t19.5 2q74 -2 126.5 -33
t85.5 -79.5t47.5 -110t13.5 -126t-16.5 -126.5t-43.5 -111q23 -30 41.5 -41.5t33.5 -11.5q13 0 24.5 6t23 13.5t23 13.5t24.5 6q9 0 14 -2q7 -1 9 -6t1 -10.5t-4 -11t-6 -8.5zM325 268q-3 8 0.5 16t11 14.5t17 10.5t18.5 4q16 0 22 -13l80 -135q28 54 37 120.5t-2.5 131
t-45.5 119.5t-93 87q-15 -11 -25.5 -14t-18.5 -3q-11 0 -22 3t-28 3h-9q-31 0 -58 -27t-46 -70.5t-29 -98t-8 -110t17 -106.5t47 -86q21 -24 60.5 -40.5t81.5 -16.5q29 0 54.5 10.5t42.5 34.5z" />
    <glyph glyph-name="uni2D56" unicode="&#x2d56;" horiz-adv-x="604" 
d="M437 467q17 47 21 96t14 100q0 11 6 19t14.5 13.5t19 8t19.5 2.5q11 0 17.5 -3.5t4.5 -11.5q-5 -32 -8 -64.5t-7.5 -64t-13 -61t-25.5 -56.5q-13 -24 -32.5 -40t-43 -27t-50 -17.5t-53.5 -10.5l-13 -304q0 -9 -6 -17t-15.5 -13.5t-20.5 -9t-21 -3.5q-9 0 -15.5 4t-6.5 13
l18 330q-5 0 -9 -0.5t-8 -0.5q-61 0 -99.5 24t-56.5 63.5t-16.5 89.5t19.5 102q3 14 21 23t35 9q12 0 20 -5.5t5 -18.5q-7 -18 -14 -41.5t-10 -47t0.5 -46t18.5 -39.5q13 -13 31.5 -24t40 -18.5t44.5 -11.5t46 -4q42 0 77 14.5t52 48.5z" />
    <glyph glyph-name="uni2D57" unicode="&#x2d57;" horiz-adv-x="271" 
d="M196 343q8 -8 3.5 -17.5t-14.5 -18t-23 -14t-23 -5.5q-11 0 -14 6q-17 20 -32 38.5t-22 41.5q-3 10 3 19t16 16t22 11t22 4q15 0 18 -9q6 -20 18 -37.5t26 -34.5zM152 213q6 -20 18 -37t26 -34q8 -8 3.5 -17.5t-14.5 -18t-23 -14t-23 -5.5q-11 0 -14 6q-17 20 -32 38.5
t-22 41.5q-3 10 3 19t16 16t22 11t22 4q15 0 18 -10zM152 607q6 -20 18 -37t26 -30q7 -10 2.5 -19.5t-14.5 -17.5t-23 -13t-23 -5t-13 5q-17 17 -32 37.5t-22 43.5q-2 10 3.5 18.5t15 15t21 10t21.5 3.5q17 0 20 -11z" />
    <glyph glyph-name="uni2D58" unicode="&#x2d58;" horiz-adv-x="558" 
d="M221 366q-4 9 0.5 18t14 16.5t22 12t23.5 4.5q16 0 20 -10q7 -20 16.5 -37.5t23.5 -34.5q9 -8 5.5 -17.5t-13 -17.5t-22.5 -13.5t-24 -5.5q-12 0 -17 5q-14 20 -28 38.5t-21 41.5zM502 134q9 -8 5.5 -17.5t-13 -18t-22.5 -14t-24 -5.5t-17 6q-14 20 -28.5 38.5
t-20.5 41.5q-4 9 0.5 18t14.5 16t22 11.5t23 4.5q16 0 21 -9q6 -20 16 -37.5t23 -34.5zM51 165q-3 10 3 19t16 16t22 11t22 4q15 0 18 -9q6 -20 18 -37.5t26 -34.5q8 -8 3.5 -17.5t-14.5 -18t-23 -14t-23 -5.5q-11 0 -14 6q-17 20 -32 38.5t-22 41.5zM463 599
q6 -20 16 -36.5t23 -30.5q8 -10 4.5 -20t-13 -17.5t-22.5 -12t-24 -4.5q-12 0 -16 5q-14 17 -28.5 37t-20.5 43q-4 9 0.5 17t13.5 15t21 11t22 4q17 0 24 -11zM51 563q-2 10 3.5 18.5t15 15t21 10t21.5 3.5q17 0 20 -11q6 -20 18 -36.5t26 -30.5q7 -9 2.5 -19t-14.5 -18
t-23 -13t-23 -5t-13 6q-17 17 -32 37t-22 43z" />
    <glyph glyph-name="uni2D59" unicode="&#x2d59;" horiz-adv-x="636" 
d="M308 705q82 -3 139 -44.5t90.5 -105.5t42.5 -142t-6 -153t-53.5 -139t-100.5 -100q-24 -12 -49 -17.5t-50 -5.5q-37 0 -72 11.5t-66 31.5t-56 48t-42 62q-18 40 -26.5 88.5t-6 100.5t15 103t36.5 94.5t59.5 76t82.5 47.5q0 11 6 19t15 13.5t20 8.5t21 3zM369 62
q41 7 71 43.5t46 89.5t17.5 116t-13.5 122t-48 108t-85 75q-10 -7 -18 -9.5t-16 -2.5q-13 0 -25.5 4t-29.5 4q-31 -6 -56.5 -32t-43 -64.5t-26.5 -86.5t-6.5 -97.5t17 -96.5t42.5 -84.5t71 -61.5t103 -27zM363 388q0 -31 -1.5 -59t-21.5 -57q-7 -13 -21.5 -20t-28.5 -7
t-22.5 8.5t0.5 26.5q7 9 9 19.5t2 22t-1 23t-1 21.5q0 8 6.5 15t16 13t20.5 9.5t20 3.5q10 0 16.5 -4t6.5 -15z" />
    <glyph glyph-name="uni2D5A" unicode="&#x2d5a;" horiz-adv-x="707" 
d="M447 653q73 49 126 49q39 0 71 -24t62 -70q4 -9 -1 -18t-14.5 -16.5t-21.5 -12.5t-22 -5q-17 0 -21 12q-7 12 -16.5 26.5t-20.5 27.5t-23.5 21.5t-26.5 8.5q-12 0 -25 -8t-27 -27q43 -42 66 -102t27 -126t-10.5 -132.5t-46.5 -121t-82 -91t-116 -43.5q-64 -2 -113.5 21.5
t-84 63.5t-54 93t-24.5 110.5t4.5 115.5t33.5 108.5t62.5 89.5t91.5 58q0 22 14.5 30.5t37.5 8.5q20 0 44 -5t45.5 -12.5t39 -15.5t25.5 -14zM348 438q-10 -14 -25 -20.5t-29 -6.5q-15 0 -22.5 7.5t0.5 23.5l112 157q-7 7 -14 10.5t-18 7.5q-10 -7 -18.5 -9.5t-16.5 -2.5
q-14 0 -27.5 3.5t-30.5 3.5q-35 0 -60.5 -28t-41 -72t-20 -99t1.5 -109t24 -101.5t47 -77.5q32 -37 63 -53t60 -16q37 0 68 24.5t53 65.5t33.5 93.5t9 108t-19.5 110.5t-52 100z" />
    <glyph glyph-name="uni2D5B" unicode="&#x2d5b;" horiz-adv-x="599" 
d="M163 78q-55 47 -83 112t-29.5 135t23.5 137t75 117q21 19 52.5 40.5t68 40t76 30.5t75.5 12t66.5 -14.5t50.5 -50.5q17 -33 7.5 -61.5t-34.5 -50.5t-60.5 -34.5t-69.5 -12.5q-25 0 -46.5 7.5t-35 24t-18 42.5t5.5 63q-52 -21 -86.5 -62t-51 -92.5t-15.5 -108.5
t19.5 -108.5t54.5 -93t89 -63.5q0 30 13 57t34 46.5t47 31t53 11.5q24 0 46 -10t39 -33q24 -31 19.5 -64.5t-30 -61.5t-67.5 -45.5t-93 -17.5q-47 0 -97 17.5t-98 59.5zM462 587q-8 23 -31.5 39t-49.5 16h-4q-24 -20 -25 -38.5t10.5 -33t30.5 -23t37 -8.5q19 0 29.5 11
t2.5 37zM381 132q-3 -21 3 -39.5t29 -32.5q29 -1 39 16.5t8 38.5t-13.5 39t-26.5 18q-10 0 -20 -9t-19 -31z" />
    <glyph glyph-name="uni2D5C" unicode="&#x2d5c;" horiz-adv-x="605" 
d="M522 375q8 2 12 2q14 0 18 -8t-0.5 -18.5t-18 -20t-34.5 -13.5l-151 -5v-268q0 -9 -6 -17t-15 -14t-19.5 -9.5t-19.5 -3.5t-15 4t-6 13l-4 295l-184 -4q-4 -2 -11 -2q-10 0 -14.5 7.5t-1.5 17t15 19.5t35 16l161 4l-10 291q0 9 6 17t15 14t20 9.5t21 3.5q9 0 15.5 -4
t7.5 -13l5 -318z" />
    <glyph glyph-name="uni2D5D" unicode="&#x2d5d;" horiz-adv-x="568" 
d="M326 384l219 -335q5 -7 1 -15.5t-13.5 -15.5t-21.5 -11.5t-23 -4.5q-17 0 -23 11l-188 286l-179 -272q-14 -14 -28 -20t-26 -6q-16 0 -22.5 9.5t5.5 24.5l210 323l-175 299q-5 8 -0.5 16t13.5 15t21 11.5t23 4.5q17 0 24 -11l147 -250l134 228q9 17 25.5 24t30.5 7t22 -6
t3 -17z" />
    <glyph glyph-name="uni2D5E" unicode="&#x2d5e;" horiz-adv-x="599" 
d="M163 83q-55 45 -83 110t-29.5 134.5t23.5 136t75 115.5q20 20 51 42t67 40t75.5 30t75.5 12q37 0 68.5 -15t51.5 -52q18 -33 8.5 -61.5t-34.5 -49t-60.5 -32.5t-69.5 -12q-25 0 -47.5 7.5t-36.5 23.5t-18 41t7 61q-67 -29 -108.5 -93.5t-43.5 -147.5l74 -1l-2 46
q0 9 6.5 17t16 13.5t20.5 9t20 3.5t15.5 -4t6.5 -12q0 -10 0.5 -23t1.5 -24q0 -13 1 -26h14q42 0 54.5 -9t5 -19.5t-29.5 -19.5t-47 -9v-45q0 -7 -6 -14.5t-15.5 -13.5t-20.5 -9.5t-20 -3.5q-10 0 -16.5 4t-6.5 15v63h-72q7 -39 19 -71.5t31.5 -59t47 -48.5t64.5 -41
q0 28 11.5 54.5t31 46.5t45.5 32.5t54 12.5q31 0 57 -14.5t40 -38.5t12 -55t-27 -64q-30 -33 -69.5 -48t-82.5 -15q-57 0 -112.5 22t-93.5 59zM462 592q-10 20 -27 29.5t-34 9.5q-12 0 -21.5 -4.5t-14.5 -13.5t-3.5 -22t11.5 -30q8 -11 22.5 -17.5t28.5 -6.5q20 0 33 13
t5 42zM462 96q3 14 0.5 27t-9 24t-16 17.5t-19.5 6.5t-19.5 -8t-17.5 -27q-5 -29 8 -50t32 -21q23 0 41 31z" />
    <glyph glyph-name="uni2D5F" unicode="&#x2d5f;" horiz-adv-x="508" 
d="M98 0q-19 4 -30.5 42t-16 95t-1.5 125t11.5 132t24 116t35.5 76q21 21 49.5 42t61.5 38t68.5 27.5t68.5 10.5q8 0 15 -0.5t14 -1.5q16 0 18.5 -9t-4 -20.5t-20.5 -20.5t-30 -9q-2 0 -4 0.5t-4 0.5q-5 1 -14 1q-24 0 -47 -8t-43 -19q-36 -19 -57.5 -45.5t-33.5 -58.5
t-16 -69.5t-4 -78.5l81 6l4 57q0 9 6 17t14.5 14t19 9.5t19.5 3.5t15 -4t6 -13l-5 -80h55q13 0 16.5 -11t-3.5 -25q-19 -27 -76 -27l-14 -76q-4 -14 -22.5 -24t-35.5 -10q-11 0 -18 5.5t-4 19.5l17 85l-80 -4q0 -28 -1 -59.5t0 -63.5t6 -63t18 -60q11 0 29 -1t39 -1
q22 0 45.5 1.5t44.5 7t37 14.5t24 24q8 16 24.5 23.5t30.5 7.5t22.5 -6t2.5 -17q-22 -42 -58.5 -65.5t-80 -34.5t-92 -13.5t-95.5 -2.5h-32z" />
    <glyph glyph-name="uni2D60" unicode="&#x2d60;" horiz-adv-x="879" 
d="M61 9q-7 2 -9 6.5t-1.5 10t3.5 11t7 8.5q57 57 105.5 128t90 144.5t77.5 144t66.5 125t57 88t50.5 33.5q14 0 26 -12q28 -26 59.5 -70.5t62 -99t59 -115t51.5 -118.5t38.5 -109t20.5 -86q7 -28 -5 -47.5t-38.5 -31t-64.5 -16.5t-83 -5q-67 0 -142.5 8t-144 18t-122 19
t-75.5 10q-14 -13 -32.5 -30t-41.5 -17q-7 0 -15 3zM494 618q-74 -121 -145 -250t-154 -256q63 -4 126 -12.5t126 -16.5t126 -14.5t127 -6.5h22t22 1q-33 144 -98.5 285t-151.5 270z" />
    <glyph glyph-name="uni2D61" unicode="&#x2d61;" horiz-adv-x="593" 
d="M462 662q0 9 6 17t15 14t19.5 9.5t19.5 3.5t15 -4t6 -13v-644q0 -14 -13 -23t-35 -14t-51.5 -6.5t-62.5 -1.5h-22h-19q-22 0 -42 -0.5t-40 -0.5q-45 0 -82 5t-63.5 22.5t-42 52.5t-18.5 95l-2 479q0 9 6 17t15 14t19.5 9.5t19.5 3.5t15 -4t6 -14l9 -517q0 -28 2.5 -46
t11.5 -29t27 -17t48 -11l233 4v599z" />
    <glyph glyph-name="uni2D62" unicode="&#x2d62;" horiz-adv-x="484" 
d="M401 704q10 2 15 2q13 0 16.5 -8t-1.5 -18t-18.5 -20t-34.5 -14q-6 0 -27 1.5t-47 1.5q-16 0 -32.5 -1t-29.5 -4.5t-21 -9.5t-8 -15q-3 -11 8.5 -27t28 -32t33 -29t24.5 -19q23 -22 35.5 -40.5t15.5 -37.5t-3 -41t-21 -52l-206 -313q-14 -14 -28.5 -19.5t-26.5 -5.5
q-16 0 -22 9.5t6 25.5q9 12 29 39.5t44.5 63.5t51 76.5t48.5 77t36 66t14 43.5q0 18 -20 40.5t-45.5 46t-49.5 45.5t-32 39q-16 30 -5.5 51.5t36 36t61 22.5t70.5 12.5t64.5 5.5t41.5 1z" />
    <glyph glyph-name="uni2D63" unicode="&#x2d63;" horiz-adv-x="666" 
d="M131 34q-4 -14 -23 -24t-36 -10q-11 0 -18 5.5t-3 19.5q12 44 34 86t53 77.5t70 62t84 38.5v116q-48 0 -88 16t-70.5 44t-51.5 66.5t-31 83.5q-2 10 3 19t14.5 15.5t20.5 10.5t21 4q8 0 13.5 -3t7.5 -10q8 -31 22 -60.5t34 -53.5t46 -42t59 -27v152q-1 9 4.5 17
t14.5 13.5t20 9t20 3.5q22 0 22 -16l4 -183q30 8 54.5 30.5t44 52t34 62t24.5 60.5q4 14 23 23t36 9q12 0 19 -5.5t3 -17.5q-15 -43 -37 -86t-51.5 -80t-66.5 -64t-83 -39l-4 -111q49 -2 87.5 -25t65 -59t39 -81t9.5 -90q0 -9 -6 -17t-15.5 -14t-20 -9.5t-19.5 -3.5t-15 4
t-5 13q2 30 -5 63.5t-22.5 64.5t-39 55t-53.5 36l-4 -107q0 -8 -6 -15.5t-15.5 -13t-20 -9t-19.5 -3.5q-10 0 -16 4t-4 15v129q-32 -9 -57 -30t-44.5 -49t-33 -60t-22.5 -62z" />
    <glyph glyph-name="uni2D64" unicode="&#x2d64;" horiz-adv-x="425" 
d="M151 590v-545q0 -9 -6 -17t-15 -14t-19.5 -9.5t-19.5 -3.5t-15 4t-6 13v643q0 18 18 30.5t37 12.5q12 0 21 -6l201 -161q10 -7 7.5 -15.5t-11.5 -16.5t-22.5 -13.5t-25.5 -5.5q-11 0 -19 6z" />
    <glyph glyph-name="uni2D65" unicode="&#x2d65;" horiz-adv-x="666" 
d="M377 465q30 9 54.5 31.5t44 51.5t34 61.5t24.5 61.5q5 14 23.5 23t35.5 9q12 0 19 -5.5t3 -18.5q-15 -43 -37 -86t-51.5 -79.5t-66.5 -63.5t-83 -39v-27q7 1 30.5 4t47.5 3q13 0 24.5 -1.5t19 -5t9.5 -10t-5 -16.5q-11 -14 -26 -20t-32.5 -7.5t-36 -1.5t-35.5 -3v-27
q49 -1 87.5 -24t65 -59t39 -81t9.5 -90q0 -9 -6 -17t-15.5 -14t-20 -9.5t-19.5 -3.5t-15 4t-4 13q2 30 -5.5 63.5t-23 64.5t-39 55t-53.5 36l-4 -107q0 -8 -6 -15.5t-15.5 -13.5t-20 -9.5t-19.5 -3.5q-21 0 -20 20v129q-32 -9 -57 -30t-44.5 -49t-33 -60.5t-21.5 -62.5
q-5 -14 -24 -24t-36 -10q-11 0 -18 6t-2 20q12 44 34 86t52.5 77.5t69.5 62t84 38.5v31q-22 -2 -45.5 -5.5t-42.5 -3.5q-18 0 -28 5.5t-4 21.5q8 15 22 22.5t31 10.5t35 3.5t32 3.5v27q-44 0 -83.5 15.5t-71 43t-54 66.5t-31.5 85q-3 9 2.5 18t14.5 15.5t20 10.5t21 4
q18 0 22 -12q16 -62 55 -112.5t105 -70.5v152q-1 9 4.5 16.5t14.5 13.5t20 9.5t20 3.5q22 0 22 -17z" />
    <glyph glyph-name="uni2D66" unicode="&#x2d66;" horiz-adv-x="547" 
d="M382 669q10 10 23.5 15t25.5 5q17 0 24 -9.5t-10 -28.5l-305 -299l354 -318q5 -6 3.5 -14t-7.5 -15.5t-16.5 -12.5t-24.5 -5q-13 0 -28 5.5t-32 19.5l-334 304q-6 3 4.5 19t31 40.5t49 54.5t59.5 61t62 61.5t56.5 55t43 41t21.5 20.5z" />
    <glyph glyph-name="uni2D67" unicode="&#x2d67;" horiz-adv-x="968" 
d="M68 325q-13 0 -17 10t2 21.5t21 21.5t39 10h321q13 0 17 -10t-1 -21.5t-20 -21.5t-40 -10h-322zM533 325q-13 0 -17 10t2 21.5t21 21.5t39 10h322q13 0 16.5 -10t-1.5 -21.5t-20 -21.5t-40 -10h-322z" />
    <glyph glyph-name="uni2D6F" unicode="&#x2d6f;" horiz-adv-x="340" 
d="M74 507q-23 27 -23.5 59t6.5 66q2 14 21 24t36 10q11 0 18.5 -5.5t4.5 -19.5q-1 -9 -2.5 -20.5t-1 -23.5t3 -23t9.5 -18q20 -13 38 -13q14 0 20 8l4 112q0 11 6 19t14.5 13.5t19 8t19.5 2.5q11 0 17.5 -3.5t4.5 -11.5l-4 -117q-2 -22 -15.5 -38.5t-33.5 -28t-43.5 -17
t-46.5 -5.5t-42 5.5t-30 16.5z" />
    <glyph glyph-name="uni2D70" unicode="&#x2d70;" horiz-adv-x="383" 
d="M252 661q0 9 6.5 17t15.5 14t20 9.5t20 3.5t15 -4t4 -13q-2 -45 -8 -107t-17.5 -130.5t-29 -138t-43 -130t-58.5 -106.5t-76 -67q-5 -4 -12 -6.5t-15 -2.5q-16 0 -23 13q-3 7 2 15.5t11.5 15t12 9.5t2.5 0q26 0 48 38t40.5 97.5t33 131.5t25.5 139.5t17.5 122t8.5 79.5z
" />
    <glyph glyph-name="uni2D7F" unicode="&#x2d7f;" horiz-adv-x="100" 
 />
    <glyph glyph-name="numbersign" unicode="#" horiz-adv-x="746" 
d="M497 41q-4 -16 -22 -28.5t-35 -12.5q-12 0 -20 7.5t-8 25.5l28 129h-202l-22 -121q-5 -15 -23 -28t-35 -13q-11 0 -19 7.5t-8 25.5l27 129h-90q-14 0 -17 10.5t3 21.5q5 7 12.5 12t20 8t32 4.5t47.5 1.5l50 264h-148q-14 0 -17 10.5t3 20.5q5 7 13.5 12t27 8.5t50.5 5
t84 1.5l22 121q4 14 15.5 23t25.5 12q8 4 16 4q18 0 21 -19.5t-1.5 -46t-12 -53t-10.5 -41.5h206l22 121q4 14 15.5 23t25.5 12q13 5 19 5q20 0 22 -20.5t-3.5 -48t-14 -54t-10.5 -38.5h89q12 0 18 -9t-2.5 -20t-35 -20t-78.5 -9l-49 -264h147q14 0 19 -10.5t-5 -20.5
q-5 -7 -13.5 -12t-26.5 -8.5t-49 -5t-81 -1.5zM497 484h-201l-49 -264h201z" />
    <glyph glyph-name="dollar" unicode="$" horiz-adv-x="585" 
d="M534 604q3 -9 -1.5 -17.5t-14 -15t-21 -11t-22.5 -4.5q-8 0 -14 2.5t-8 9.5q-11 29 -31.5 49.5t-53.5 26.5q-3 -31 -4.5 -45.5t-2 -25t-0.5 -23t-1 -39t-3.5 -73t-6.5 -125.5q41 -25 73 -55.5t50.5 -62.5t22 -63.5t-11.5 -59t-51 -49t-96 -33.5q0 -9 -2.5 -17t-2.5 -18
q0 -9 -6 -17t-15.5 -14t-20 -9.5t-19.5 -3.5t-15 4t-5 14v71q-27 5 -61 20t-64.5 37.5t-52 51t-23.5 60.5q-1 8 5 16t15 14t20.5 10t20.5 4q20 0 20 -16q3 -27 15.5 -45.5t30.5 -32t39 -24.5t40 -24l9 202q-14 14 -31.5 26t-34 25t-31.5 28.5t-24 36.5q-16 41 -9.5 84
t28.5 82t55.5 70.5t69.5 49.5l4 59q0 9 6.5 16.5t15.5 13.5t20 9.5t20 3.5q20 0 19 -17v-58q5 1 10 1h10q47 0 83 -27t58 -72zM283 608q-27 -19 -44.5 -51t-20.5 -67t10 -67.5t46 -51.5zM337 53q7 -2 13.5 -3t12.5 -1q29 0 38.5 21t4.5 48.5t-21.5 54t-39.5 37.5z" />
    <glyph glyph-name="percent" unicode="%" horiz-adv-x="625" 
d="M128 28q-11 -14 -25 -20t-27 -6q-17 0 -25 9t6 22l442 644q7 13 22 19.5t29 6.5q15 0 23 -7.5t-2 -22.5zM254 641q0 -29 -19 -43.5t-42 -14.5t-41.5 14.5t-18.5 43.5q0 31 18.5 46.5t41.5 15.5t42 -15.5t19 -46.5zM414 58q0 32 18 47t41 15t42 -15.5t19 -46.5
q0 -29 -19 -43t-42 -14t-41 14t-18 43z" />
    <glyph glyph-name="at" unicode="@" horiz-adv-x="783" 
d="M353 61q21 -3 43 -3q64 0 128 24t107 73q13 14 27 20t26 6q16 0 23 -10t-5 -25q-31 -36 -70.5 -63t-84 -45t-92.5 -27.5t-97 -10.5q-66 0 -119 25t-91 67.5t-60.5 97t-26.5 113.5t10.5 118t49.5 110q24 36 62.5 68t85 56t98.5 37.5t102 13.5q42 0 81 -10.5t72 -34.5
q46 -37 70 -86t29.5 -100.5t-6 -101.5t-34.5 -89.5t-56.5 -63.5t-73.5 -24q-26 0 -53 11t-55 37q-23 -19 -53.5 -30t-61.5 -11q-38 0 -69 19q-23 15 -29 37.5t0.5 49.5t21.5 55t34 53t38.5 44.5t33.5 28.5q5 3 10.5 5.5t12.5 2.5q9 0 19 -6.5t20 -23.5l41 -9q6 -19 13.5 -52
t18.5 -65t27 -55.5t39 -23.5q11 0 23 5.5t26 19.5q19 29 30.5 65.5t13.5 73.5t-6 72.5t-29 62.5q-29 40 -75 58t-97 18q-38 0 -76.5 -9t-73 -25t-63.5 -39t-47 -52q-21 -36 -30 -82.5t-7 -95t16 -95.5t39.5 -85t63 -63.5t86.5 -30.5zM377 267q15 5 17.5 26.5t-0.5 47.5
t-8 51t-5 36q0 7 4 13.5t3 6.5l-7 -7q-12 -10 -24.5 -27t-22.5 -36.5t-16 -40t-5 -37t10 -27t29 -10.5q13 0 25 4z" />
    <glyph glyph-name="bracketleft" unicode="[" horiz-adv-x="303" 
d="M220 18q26 0 30.5 -9t-2.5 -20t-22 -20t-28 -9t-27.5 -0.5t-30.5 -0.5q-17 0 -33 2t-29 9t-20.5 19.5t-7.5 33.5v635q0 42 29 67t69 25q21 0 43 -3.5t42 -3.5q14 0 17.5 -9t-2.5 -20t-21 -20t-38 -9q-17 0 -27.5 1t-16.5 1q-11 0 -12.5 -11t-1.5 -49v-587q0 -16 12 -21
t28 -5q14 0 27.5 2t21.5 2z" />
    <glyph glyph-name="backslash" unicode="\" horiz-adv-x="622" 
d="M54 667q-10 19 -3.5 27t20.5 8t30 -7t24 -19l443 -643q9 -19 3.5 -27t-19.5 -8q-12 0 -27.5 6.5t-28.5 18.5z" />
    <glyph glyph-name="bracketright" unicode="]" horiz-adv-x="303" 
d="M253 23q0 -21 -7.5 -33.5t-20.5 -19.5t-29 -9t-33 -2q-16 0 -30.5 0.5t-27.5 0.5t-27.5 9t-22 20t-3 20t30.5 9q8 0 21.5 -2t27.5 -2q16 0 28 5t12 21v587q0 38 -1.5 49t-12.5 11q-6 0 -16.5 -1t-26.5 -1q-23 0 -38 9t-21 20t-2.5 20t16.5 9q21 0 42.5 3.5t42.5 3.5
q40 0 69 -25t29 -67v-635z" />
    <glyph glyph-name="asciicircum" unicode="^" horiz-adv-x="668" 
d="M325 516l-197 -264q-14 -14 -28 -20t-26 -6q-16 0 -22.5 10t5.5 25l241 322q7 9 21.5 17.5t29.5 8.5q16 0 25 -13l242 -322q5 -6 1 -14t-13 -15t-21.5 -12t-23.5 -5q-17 0 -24 10z" />
    <glyph glyph-name="underscore" unicode="_" horiz-adv-x="642" 
d="M574 0q13 0 16.5 -10t-2 -21.5t-20.5 -21.5t-39 -10h-461q-13 0 -17 10t2 21.5t21 21.5t39 10h461z" />
    <glyph glyph-name="braceleft" unicode="{" horiz-adv-x="370" 
d="M257 747q17 0 32.5 -6.5t26.5 -20.5q5 -12 3.5 -19.5t-8.5 -11.5t-17 -5.5t-22 -1.5q-15 0 -30.5 1.5t-26.5 1.5q-9 0 -11 -1q2 -25 5.5 -64.5t5 -81.5t-2.5 -79t-17 -56l-63 -59l54 -53q16 -23 22.5 -58.5t6.5 -73.5t-3.5 -74.5t-7.5 -62.5q29 0 48 -1.5t31.5 -5
t20 -8.5t12.5 -11q6 -14 3 -25t-17 -11h-120q-7 0 -18 3t-21.5 9t-17.5 14t-6 18l3 33t4.5 50t4.5 58.5t1.5 57.5t-3.5 47t-10 27q-16 23 -29 35t-21.5 18t-13 8t-5.5 6l59 99q18 18 22.5 56.5t2.5 81.5t-7.5 83.5t-7.5 63.5q-3 8 3.5 13.5t14.5 5.5h120z" />
    <glyph glyph-name="bar" unicode="|" horiz-adv-x="181" 
d="M131 6q0 -9 -6 -17t-15 -14t-19.5 -9.5t-19.5 -3.5t-15 4t-6 13v725q0 9 6 16.5t15 13.5t19.5 9.5t19.5 3.5t15 -4t6 -13v-724z" />
    <glyph glyph-name="braceright" unicode="}" horiz-adv-x="370" 
d="M176 403q-13 19 -17 56t-3 79t4.5 81.5t5.5 64.5q-2 1 -11 1q-11 0 -26.5 -1.5t-30.5 -1.5q-12 0 -22 1.5t-17 5.5t-8.5 11.5t3.5 19.5q11 14 26.5 20.5t32.5 6.5h120q8 0 15 -5.5t3 -13.5q-1 -23 -7 -63.5t-8 -83.5t2.5 -81.5t22.5 -56.5q14 -22 25 -36.5t18.5 -24.5
t11.5 -18.5t4 -19.5q-1 -4 -5.5 -6t-13 -8t-21 -18t-29.5 -35q-7 -7 -10 -27t-3.5 -47t1.5 -57.5t4.5 -58.5t4.5 -50.5t3 -32.5q2 -10 -5 -18t-17.5 -14t-22 -9t-18.5 -3h-120q-14 0 -17 11t3 25q5 6 12.5 11t20 8.5t32 5t47.5 1.5q-4 26 -7.5 62.5t-3.5 74.5t6.5 73.5
t22.5 58.5l54 53z" />
    <glyph glyph-name="fraction" unicode="&#x2044;" horiz-adv-x="623" 
d="M497 676q8 12 24 19t30 7t21 -8t-3 -27l-442 -644q-13 -12 -28.5 -18.5t-28.5 -6.5t-18.5 8t2.5 27z" />
    <glyph glyph-name="exclam" unicode="!" horiz-adv-x="225" 
d="M90 660q0 9 6.5 17t16 14t20.5 9.5t21 3.5q9 0 15 -4t6 -13v-483q0 -9 -6 -17t-15.5 -14t-20.5 -9.5t-21 -3.5q-9 0 -15.5 4t-6.5 13v483zM90 78q0 8 6 15.5t15.5 13.5t20.5 9.5t20 3.5q10 0 16.5 -4.5t6.5 -14.5v-58q0 -9 -6.5 -17t-16 -14t-20.5 -9.5t-20 -3.5t-15.5 4
t-6.5 13v62z" />
    <glyph glyph-name="quotedblleft" unicode="&#x201c;" horiz-adv-x="410" 
d="M311 494q-31 -20 -52 -20q-23 0 -29.5 22.5t-0.5 55t20.5 67t33.5 58.5q11 10 28 17t31 7q12 0 17.5 -7.5t-3.5 -26.5q-14 -17 -28 -39t-17 -45q18 0 24.5 -10.5t4.5 -25t-10 -29.5t-19 -24zM141 494q-31 -20 -52 -20q-24 0 -30 22.5t-0.5 55t20.5 67t34 58.5
q11 10 28 17t31 7q12 0 17 -7.5t-4 -26.5q-14 -17 -27.5 -39t-16.5 -45q18 0 24 -10.5t4 -25t-9.5 -29.5t-18.5 -24z" />
    <glyph glyph-name="quotedblright" unicode="&#x201d;" horiz-adv-x="410" 
d="M126 501q-11 -11 -27.5 -18t-30.5 -7q-12 0 -17.5 7.5t3.5 26.5q14 17 28 39t17 45q-18 0 -24.5 10.5t-4.5 25.5t10 30t19 24q32 19 51 19q24 0 30 -22.5t0.5 -54.5t-20.5 -66.5t-34 -58.5zM297 501q-11 -11 -28 -18t-31 -7q-12 0 -17 7.5t3 26.5q14 17 28 39t17 45
q-18 0 -24.5 10.5t-4.5 25.5t10 30t19 24q32 19 52 19q23 0 29.5 -22.5t0.5 -54.5t-20.5 -66.5t-33.5 -58.5z" />
    <glyph glyph-name="quoteright" unicode="&#x2019;" horiz-adv-x="240" 
d="M126 501q-11 -11 -27.5 -18t-30.5 -7q-12 0 -17.5 7.5t3.5 26.5q14 17 28 39t17 45q-18 0 -24.5 10.5t-4.5 25.5t10 30t19 24q32 19 51 19q24 0 30 -22.5t0.5 -54.5t-20.5 -66.5t-34 -58.5z" />
    <glyph glyph-name="quoteleft" unicode="&#x2018;" horiz-adv-x="240" 
d="M141 494q-31 -20 -52 -20q-24 0 -30 22.5t-0.5 55t20.5 67t34 58.5q11 10 28 17t31 7q12 0 17 -7.5t-4 -26.5q-14 -17 -27.5 -39t-16.5 -45q18 0 24 -10.5t4 -25t-9.5 -29.5t-18.5 -24z" />
    <glyph glyph-name="guillemotleft" unicode="&#xab;" horiz-adv-x="669" 
d="M410 83q8 -7 5 -16.5t-11.5 -17t-21 -13t-23.5 -5.5q-14 0 -21 8l-281 282q-11 6 -7 15t12 16q70 71 140 141l141 141q11 11 23.5 15.5t23.5 4.5q18 0 25.5 -11t-9.5 -27l-264 -264zM344 352l269 -269q8 -7 5 -16.5t-11.5 -17t-21 -13t-23.5 -5.5q-14 0 -21 8l-281 282
q-11 6 -7 15t11 16l282 282q11 11 23.5 15.5t23.5 4.5q18 0 25 -11t-10 -27z" />
    <glyph glyph-name="guillemotright" unicode="&#xbb;" horiz-adv-x="669" 
d="M528 352l-264 264q-18 16 -10.5 27t25.5 11q11 0 23.5 -4.5t23.5 -15.5l282 -282q7 -7 11 -16t-7 -15l-281 -282q-7 -8 -21 -8q-11 0 -23.5 5.5t-21 13t-11.5 17t5 16.5zM405 352q7 -7 11 -16t-7 -15l-281 -282q-7 -8 -21 -8q-11 0 -23.5 5.5t-21 13t-11.5 17t5 16.5
l269 269q-68 67 -132.5 131.5t-131.5 132.5q-17 16 -10 27t25 11q11 0 23.5 -4.5t23.5 -15.5z" />
    <glyph glyph-name="divide" unicode="&#xf7;" 
d="M434 377q13 0 17 -10t-1 -21.5t-20 -21.5t-40 -10h-322q-13 0 -17 10t2 21.5t21 21.5t39 10h321zM236 158q-21 0 -32 14t-11 31t11 31t32 14t32 -14t11 -31t-11 -31t-32 -14zM236 541q21 0 32 -14t11 -30.5t-11 -30.5t-32 -14t-32 14t-11 30.5t11 30.5t32 14z" />
    <glyph glyph-name="guilsinglleft" unicode="&#x2039;" horiz-adv-x="466" 
d="M410 83q8 -7 5 -16.5t-11.5 -17t-21 -13t-23.5 -5.5q-14 0 -21 8l-281 282q-11 6 -7 15t12 16l281 282q11 11 23.5 15.5t23.5 4.5q18 0 25.5 -11t-9.5 -27l-264 -264z" />
    <glyph glyph-name="guilsinglright" unicode="&#x203a;" horiz-adv-x="466" 
d="M405 352q7 -7 11 -16t-7 -15l-281 -282q-7 -8 -21 -8q-11 0 -23.5 5.5t-21 13t-11.5 17t5 16.5l269 269l-264 264q-17 16 -10 27t25 11q11 0 23.5 -4.5t23.5 -15.5z" />
    <glyph glyph-name="quotedbl" unicode="&#x22;" horiz-adv-x="322" 
d="M191 680q0 9 6 17t15 14t19.5 9.5t19.5 3.5t15 -4t6 -13v-161q0 -9 -6 -17t-15 -14t-19.5 -9.5t-19.5 -3.5t-15 4t-6 13v161zM131 543q0 -9 -6 -17t-15 -14t-19.5 -9.5t-19.5 -3.5t-15 4t-6 13v161q0 9 6 16.5t15 13.5t19.5 9.5t19.5 3.5t15 -4t6 -12v-161z" />
    <glyph glyph-name="ampersand" unicode="&#x26;" horiz-adv-x="650" 
d="M381 655q10 -39 1.5 -74.5t-28 -68.5t-45 -63.5t-49.5 -58.5q21 -48 57 -90t77 -84q4 20 5.5 40.5t-5.5 44.5q-2 16 17.5 28.5t39.5 12.5q11 0 18.5 -4t9.5 -15q7 -18 7 -39t-4.5 -42t-12.5 -41t-17 -38q24 -19 50 -38t58 -29q8 4 18 4q9 0 14.5 -4.5t7 -10.5t-1.5 -13
t-12 -13q-12 -12 -26.5 -17.5t-29.5 -5.5q-17 0 -35 6t-35.5 15t-33 19.5t-27.5 19.5q-19 -19 -43.5 -37t-51.5 -31.5t-56.5 -21.5t-59.5 -8q-16 0 -31 3q-45 10 -70 36.5t-33 62.5t-1.5 77t22.5 79t40 69t51 47q-11 29 -25.5 64t-23 71t-5.5 71t27 63q10 13 27.5 24.5
t38.5 20t44 13.5t45 5q29 0 53 -11.5t34 -37.5zM171 77q21 -18 51 -18q18 0 37 6.5t36.5 17t33 24.5t25.5 28q-44 42 -86 88.5t-71 99.5q-23 -21 -40 -53.5t-23 -67.5t2 -68t35 -57zM233 444q7 7 18 22.5t21.5 35t19.5 41.5t12 41.5t-1 35t-20 21.5q-9 2 -16.5 3t-14.5 1
q-34 0 -45 -22.5t-9 -54.5t13.5 -66t21.5 -58z" />
    <glyph glyph-name="quotesingle" unicode="'" horiz-adv-x="181" 
d="M50 680q0 9 6 17t15 14t19.5 9.5t19.5 3.5t15 -4t6 -13v-161q0 -9 -6 -17t-15 -14t-19.5 -9.5t-19.5 -3.5t-15 4t-6 13v161z" />
    <glyph glyph-name="parenleft" unicode="(" horiz-adv-x="268" 
d="M136 702q6 14 24.5 21.5t35.5 7.5q12 0 18.5 -4.5t1.5 -15.5q-24 -45 -43 -103.5t-30.5 -123t-14.5 -132.5t5 -132t28.5 -121t54.5 -99q5 -6 1 -14.5t-13 -15.5t-21.5 -12t-23.5 -5q-16 0 -23 11q-30 37 -47.5 85t-26.5 100.5t-10.5 105.5t-0.5 101q4 90 24 177.5
t61 168.5z" />
  </font>
</defs>
</svg>
